<svg style="position: absolute; width: 0; height: 0; overflow: hidden;" version="1.1" xmlns="http://www.w3.org/2000/svg" xmlns:xlink="http://www.w3.org/1999/xlink">
<defs>
<symbol id="left" viewBox="0 0 19 32">
<title>left</title>
<path class="path1" d="M16 32c-0.002 0-0.003 0-0.005 0-0.807 0-1.537-0.326-2.067-0.855l-13.074-13.074c-0.529-0.529-0.857-1.261-0.857-2.069s0.327-1.539 0.857-2.069l13.080-13.080c0.526-0.508 1.243-0.821 2.033-0.821 1.616 0 2.926 1.31 2.926 2.926 0 0.79-0.313 1.507-0.822 2.034l-11.007 11.007 11.008 11.008c0.531 0.53 0.86 1.262 0.86 2.072 0 1.616-1.31 2.926-2.926 2.926-0.002 0-0.004 0-0.006 0z"></path>
</symbol>
<symbol id="right" viewBox="0 0 19 32">
<title>right</title>
<path class="path1" d="M2.926 32c-0.002 0-0.003 0-0.005 0-1.616 0-2.926-1.31-2.926-2.926 0-0.809 0.329-1.542 0.86-2.072l11.002-11.008-11.002-10.996c-0.53-0.53-0.858-1.263-0.858-2.072 0-1.618 1.312-2.93 2.93-2.93 0.809 0 1.542 0.328 2.072 0.858l13.074 13.080c0.529 0.53 0.857 1.261 0.857 2.069s-0.327 1.539-0.857 2.069l-13.074 13.074c-0.529 0.528-1.26 0.854-2.066 0.854-0.002 0-0.004 0-0.006 0z"></path>
</symbol>
<symbol id="email" viewBox="0 0 42 32">
<title>email</title>
<path class="path1" fill="var(--color1, #5c5857)" d="M37.13 0h-32.13c-2.757 0-5 2.159-5 4.799v22.395c0 2.639 2.243 4.799 5 4.799h32.13c2.757 0 5-2.159 5-4.799v-22.395c0-2.639-2.243-4.799-5-4.799zM37.13 27.76h-32.13c-0.405 0-0.761-0.264-0.761-0.561v-19.435l14.53 12.268c0.286 0.243 0.66 0.391 1.068 0.391h2.455c0.408-0 0.782-0.148 1.070-0.393l14.53-12.266v19.435c-0.002 0.298-0.358 0.561-0.763 0.561zM21.054 16.212l-14.123-11.973h28.267z"></path>
</symbol>
<symbol id="facebook" viewBox="0 0 32 32">
<title>facebook</title>
<path class="path1" fill="var(--color2, #2980b9)" d="M15.999 0c-0.001 0-0.001 0-0.002 0-8.837 0-16.001 7.164-16.001 16.001s7.164 16.001 16.001 16.001c8.837 0 16.001-7.164 16.001-16.001 0-0 0-0.001 0-0.002 0-8.836-7.163-15.999-15.999-15.999zM20.254 15.735h-2.701v9.634h-4.008v-9.634h-1.904v-3.405h1.904v-2.204c0-1.576 0.75-4.043 4.044-4.043l2.967 0.012v3.304h-2.154c-0.35 0-0.85 0.175-0.85 0.927v2.004h3.053z"></path>
</symbol>
<symbol id="location" viewBox="0 0 36 32">
<title>location</title>
<path class="path1" fill="var(--color1, #5c5857)" d="M17.996 24.782c0.997 0 9.311-10.328 9.311-15.476 0-5.142-4.169-9.311-9.311-9.311s-9.311 4.169-9.311 9.311c0 5.149 8.352 15.476 9.311 15.476zM11.982 8.985c0-3.322 2.693-6.014 6.014-6.014s6.014 2.693 6.014 6.014c0 3.322-2.693 6.014-6.014 6.014s-6.014-2.693-6.014-6.014z"></path>
<path class="path2" fill="var(--color1, #5c5857)" d="M34.534 17.666c-0.001-0.858-0.697-1.554-1.555-1.555h-5.672c-0.012-0.001-0.026-0.002-0.039-0.002-0.165 0-0.306 0.101-0.365 0.244-0.3 0.505-0.274 0.462-0.555 0.926-0.023 0.030-0.037 0.068-0.037 0.11 0 0.099 0.081 0.18 0.18 0.18 0.002 0 0.005-0 0.007-0h6.478c0.053 0.002 0.095 0.044 0.097 0.097l1.459 12.777c-0.002 0.053-0.044 0.095-0.097 0.097h-32.88c-0.053-0.002-0.095-0.044-0.097-0.097l1.458-12.777c0.002-0.053 0.044-0.095 0.097-0.097h6.432c0.133 0 0.342-0.077 0.104-0.466-0.279-0.455-0.18-0.322-0.468-0.826-0.11-0.18-0.263-0.167-0.47-0.167h-5.597c-0.858 0.001-1.554 0.697-1.555 1.555l-1.459 12.781c0.001 0.858 0.697 1.554 1.555 1.555h32.882c0.858-0.001 1.554-0.697 1.555-1.555z"></path>
</symbol>
<symbol id="fax" viewBox="0 0 31 32">
<title>fax</title>
<path class="path1" fill="var(--color1, #5c5857)" d="M23.125 8.505h-7.97c-0.248 0-0.45-0.201-0.45-0.45s0.201-0.45 0.45-0.45h7.97c0.248 0 0.45 0.201 0.45 0.45s-0.201 0.45-0.45 0.45z"></path>
<path class="path2" fill="var(--color1, #5c5857)" d="M19.435 5.939h-4.319c-0.248 0-0.45-0.201-0.45-0.45s0.201-0.45 0.45-0.45h4.319c0.248 0 0.45 0.201 0.45 0.45s-0.201 0.45-0.45 0.45z"></path>
<path class="path3" fill="var(--color1, #5c5857)" d="M8.575 30.56c0.001 0.014 0.001 0.030 0.001 0.047 0 0.769-0.624 1.393-1.393 1.393-0.002 0-0.003 0-0.005 0h-5.78c-0.001 0-0.003 0-0.004 0-0.769 0-1.393-0.624-1.393-1.393 0-0.016 0-0.033 0.001-0.049s0.257-8.438 0.257-11.731c-0.002-3.243-0.259-11.53-0.259-11.53-0.001-0.014-0.001-0.030-0.001-0.047 0-0.769 0.624-1.393 1.393-1.393 0.002 0 0.003 0 0.005 0h5.782c0.001 0 0.003 0 0.004 0 0.769 0 1.393 0.624 1.393 1.393 0 0.016-0 0.033-0.001 0.049s-0.257 8.276-0.257 11.527c0 3.293 0.257 11.733 0.257 11.733z"></path>
<path class="path4" fill="var(--color1, #5c5857)" d="M29.392 5.858l-1.109 0.014c-0.225 0-0.27-0.27-0.306-0.41-0.109-0.438-0.34-0.812-0.655-1.094l-4.638-3.813c-0.426-0.326-0.96-0.53-1.54-0.554l-7.384-0c-0.632 0-1.145 0.512-1.145 1.145v4.285s0.013 0.428-0.315 0.428h-0.965c-0.646 0.002-1.169 0.525-1.172 1.171v23.801c0.003 0.645 0.526 1.168 1.171 1.17h18.050c0.646-0.002 1.169-0.525 1.172-1.171v-23.801c-0.003-0.644-0.523-1.165-1.166-1.17zM22.374 1.663c0-0.194 0.18-0.049 0.18-0.049l3.828 3.27s0.18 0.149-0.070 0.149h-3.646c-0.164 0-0.297-0.133-0.297-0.297s0-2.305 0-3.075zM13.459 1.145c0.002-0.163 0.134-0.295 0.297-0.297h7.378c0.007-0 0.014-0.001 0.022-0.001 0.191 0 0.347 0.148 0.359 0.336l0 3.553c0 0 0 0 0 0 0 0.631 0.511 1.143 1.143 1.145h4.308c0.007-0.001 0.015-0.002 0.024-0.002 0.104 0 0.189 0.085 0.189 0.189 0 0.004-0 0.009-0 0.013l0 6.589c0 0.225-0.193 0.203-0.241 0.203h-13.277c-0.007 0.001-0.014 0.001-0.022 0.001-0.099 0-0.18-0.081-0.18-0.18 0-0 0-0.001 0-0.001zM16.952 28.565c0 0.398-0.322 0.72-0.72 0.72h-2.539c-0.398 0-0.72-0.322-0.72-0.72v-2.16c0-0.398 0.322-0.72 0.72-0.72h2.537c0.398 0 0.72 0.322 0.72 0.72zM16.952 23.886c0 0.398-0.322 0.72-0.72 0.72h-2.539c-0.398 0-0.72-0.322-0.72-0.72v-2.16c0-0.398 0.322-0.72 0.72-0.72h2.537c0.398 0 0.72 0.322 0.72 0.72zM16.952 19.207c0 0.398-0.322 0.72-0.72 0.72h-2.539c-0.398 0-0.72-0.322-0.72-0.72v-2.16c0-0.398 0.322-0.72 0.72-0.72h2.537c0.398 0 0.72 0.322 0.72 0.72zM22.351 28.574c0 0.398-0.322 0.72-0.72 0.72h-2.537c-0.398 0-0.72-0.322-0.72-0.72v-2.16c0-0.398 0.322-0.72 0.72-0.72h2.537c0.398 0 0.72 0.322 0.72 0.72zM22.351 23.895c0 0.398-0.322 0.72-0.72 0.72h-2.537c-0.398 0-0.72-0.322-0.72-0.72v-2.16c0-0.398 0.322-0.72 0.72-0.72h2.537c0.398 0 0.72 0.322 0.72 0.72zM22.351 19.216c0 0.398-0.322 0.72-0.72 0.72h-2.537c-0.398 0-0.72-0.322-0.72-0.72v-2.16c0-0.398 0.322-0.72 0.72-0.72h2.537c0.398 0 0.72 0.322 0.72 0.72zM27.749 28.583c0 0.398-0.322 0.72-0.72 0.72h-2.537c-0.398 0-0.72-0.322-0.72-0.72v-2.16c0-0.398 0.322-0.72 0.72-0.72h2.537c0.398 0 0.72 0.322 0.72 0.72zM27.749 23.904c0 0.398-0.322 0.72-0.72 0.72h-2.537c-0.398 0-0.72-0.322-0.72-0.72v-2.16c0-0.398 0.322-0.72 0.72-0.72h2.537c0.398 0 0.72 0.322 0.72 0.72zM27.749 19.225c0 0.398-0.322 0.72-0.72 0.72h-2.537c-0.398 0-0.72-0.322-0.72-0.72v-2.16c0-0.398 0.322-0.72 0.72-0.72h2.537c0.398 0 0.72 0.322 0.72 0.72z"></path>
</symbol>
<symbol id="menu" viewBox="0 0 8 32">
<title>menu</title>
<path class="path1" d="M7.621 3.81c0 2.104-1.706 3.81-3.81 3.81s-3.81-1.706-3.81-3.81c0-2.104 1.706-3.81 3.81-3.81s3.81 1.706 3.81 3.81z"></path>
<path class="path2" d="M7.621 16c0 2.104-1.706 3.81-3.81 3.81s-3.81-1.706-3.81-3.81c0-2.104 1.706-3.81 3.81-3.81s3.81 1.706 3.81 3.81z"></path>
<path class="path3" d="M7.621 28.19c0 2.104-1.706 3.81-3.81 3.81s-3.81-1.706-3.81-3.81c0-2.104 1.706-3.81 3.81-3.81s3.81 1.706 3.81 3.81z"></path>
</symbol>
<symbol id="mobile" viewBox="0 0 18 32">
<title>mobile</title>
<path class="path1" fill="var(--color1, #5c5857)" d="M15.793 0h-13.464c0 0-0 0-0 0-1.286 0-2.329 1.043-2.329 2.329 0 0.004 0 0.008 0 0.011v27.331c0 1.286 1.043 2.329 2.329 2.329h13.464c1.286 0 2.329-1.043 2.329-2.329v-27.332c0 0 0-0 0-0 0-1.288-1.041-2.333-2.328-2.339zM5.739 1.416h6.646c0.167 0 0.304 0.25 0.304 0.561s-0.137 0.561-0.304 0.561h-6.646c-0.169 0-0.302-0.252-0.302-0.561s0.133-0.561 0.302-0.561zM9.063 29.693c-0.001 0-0.001 0-0.002 0-0.821 0-1.486-0.666-1.486-1.486s0.666-1.486 1.486-1.486c0.82 0 1.485 0.664 1.486 1.485 0 0 0 0 0 0 0 0.821-0.664 1.486-1.484 1.488zM16.376 24.606h-14.631v-20.672h14.631z"></path>
</symbol>
<symbol id="phone" viewBox="0 0 32 32">
<title>phone</title>
<path class="path1" d="M16 32c-8.837 0-16-7.163-16-16s7.163-16 16-16c8.837 0 16 7.163 16 16-0.010 8.833-7.167 15.99-15.999 16zM16 1.315c-8.11 0-14.685 6.575-14.685 14.685s6.575 14.685 14.685 14.685c8.11 0 14.685-6.575 14.685-14.685-0.010-8.106-6.579-14.675-14.684-14.685z"></path>
<path class="path2" d="M25.425 21.962c-0.706 2.411-2.569 3.945-5.361 3.658-0.907-0.068-5.041-0.903-8.844-4.73s-4.585-7.86-4.644-8.767c-0.292-2.755 0.921-4.892 3.191-5.699 0.131-0.045 0.281-0.071 0.438-0.071 0.561 0 1.045 0.333 1.264 0.812l1.218 2.639c0.081 0.171 0.128 0.372 0.128 0.583 0 0.385-0.156 0.734-0.409 0.986l-1.885 1.885s0.044 1.482 3.095 4.53c2.974 2.979 4.526 3.095 4.526 3.095l1.852-1.852c0.253-0.252 0.601-0.407 0.986-0.407 0.229 0 0.445 0.055 0.635 0.153l3.085 1.552c0.465 0.234 0.778 0.708 0.778 1.254 0 0.135-0.019 0.265-0.055 0.388z"></path>
</symbol>
<symbol id="logob" viewBox="0 0 36 32">
<title>logob</title>
<path class="path1" fill="var(--color1, #5c5857)" d="M16.355 4.504c-0.035 0.006-0.067 0.015-0.097 0.027-0.036 0.015-0.070 0.035-0.101 0.059-0.035 0.029-0.067 0.061-0.094 0.098-0.032 0.043-0.058 0.091-0.075 0.143-0.021 0.062-0.035 0.13-0.041 0.201-0.002 0.029-0.003 0.059-0.003 0.089 0 0.062 0.005 0.123 0.014 0.182 0.014 0.114 0.041 0.224 0.081 0.328 0.030 0.077 0.073 0.153 0.126 0.22 0.042 0.053 0.096 0.099 0.157 0.132 0.054 0.029 0.114 0.047 0.178 0.049 0.002 0 0.003 0 0.004 0 0.052 0 0.102-0.008 0.149-0.022 0.048-0.010 0.094-0.025 0.137-0.046 0.029-0.015 0.057-0.034 0.082-0.056l-0.206-1.361c-0.062-0.033-0.135-0.053-0.214-0.053-0.035 0-0.068 0.004-0.101 0.011z"></path>
<path class="path2" fill="var(--color1, #5c5857)" d="M13.797 5.995q0.031 0.085 0.075 0.17c0.032 0.063 0.064 0.117 0.099 0.168 0.034 0.047 0.072 0.092 0.113 0.134 0.036 0.041 0.077 0.077 0.123 0.107 0.043 0.027 0.091 0.045 0.142 0.053 0.015 0.002 0.029 0.003 0.044 0.003 0.039 0 0.076-0.008 0.111-0.022 0.073-0.024 0.135-0.071 0.177-0.133 0.038-0.061 0.062-0.132 0.065-0.209 0.001-0.014 0.001-0.030 0.001-0.045 0-0.077-0.010-0.151-0.028-0.222-0.024-0.11-0.054-0.208-0.090-0.303-0.034-0.085-0.074-0.169-0.12-0.249-0.039-0.069-0.090-0.137-0.148-0.197-0.050-0.052-0.113-0.093-0.183-0.117-0.032-0.010-0.065-0.015-0.099-0.015-0.044 0-0.086 0.009-0.124 0.025-0.074 0.024-0.138 0.071-0.183 0.132-0.039 0.058-0.065 0.126-0.073 0.2-0.003 0.025-0.004 0.052-0.004 0.079 0 0.061 0.007 0.12 0.020 0.176 0.022 0.1 0.050 0.191 0.085 0.279z"></path>
<path class="path3" fill="var(--color1, #5c5857)" d="M23.934 6.932c-0.039-0.014-0.086-0.026-0.134-0.034-0.024-0.004-0.048-0.005-0.071-0.005s-0.047 0.002-0.070 0.005c-0.043 0.006-0.084 0.021-0.121 0.043-0.039 0.024-0.073 0.058-0.097 0.097-0.043 0.054-0.069 0.121-0.069 0.195 0 0.028 0.004 0.055 0.011 0.081 0.041 0.091 0.113 0.164 0.203 0.205 0.041 0.022 0.087 0.036 0.136 0.040 0.021 0.002 0.044 0.003 0.067 0.003s0.046-0.001 0.069-0.003l0.16-0.251 0.163-0.251q-0.052-0.033-0.115-0.066c-0.037-0.020-0.081-0.040-0.126-0.057z"></path>
<path class="path4" fill="var(--color1, #5c5857)" d="M19.484 7.891c0.019 0.005 0.037 0.013 0.054 0.020s0.034 0.013 0.049 0.020 0.060 0.028 0.085 0.040l0.063 0.036 0.054 0.034-0.046-0.045c-0.015-0.014-0.035-0.029-0.058-0.047s-0.052-0.034-0.080-0.050c-0.033-0.020-0.067-0.037-0.101-0.052-0.038-0.017-0.078-0.032-0.119-0.044-0.028-0.008-0.050-0.014-0.072-0.019-0.018-0.005-0.041-0.010-0.064-0.013-0.050-0.008-0.097-0.013-0.144-0.017s-0.094 0-0.141 0-0.092 0.006-0.136 0.011c-0.090 0.011-0.17 0.028-0.247 0.050-0.073 0.019-0.146 0.047-0.215 0.080s0.098-0.024 0.235-0.046l0.111-0.014c0.039-0.004 0.081-0.008 0.123-0.011s0.085 0 0.132-0.005 0.090 0 0.135 0 0.090 0.006 0.134 0.014 0.085 0.014 0.128 0.024 0.087 0.024 0.122 0.036z"></path>
<path class="path5" fill="var(--color1, #5c5857)" d="M11.664 6.865c0.044 0.099 0.090 0.183 0.142 0.262q0.044 0.068 0.105 0.143c0.041 0.048 0.083 0.091 0.127 0.132 0.044 0.042 0.090 0.079 0.139 0.113 0.046 0.032 0.095 0.058 0.148 0.077 0.042 0.015 0.086 0.023 0.132 0.023 0.008 0 0.015-0 0.023-0.001 0.053-0.004 0.102-0.022 0.143-0.050 0.066-0.038 0.117-0.097 0.145-0.167 0.017-0.046 0.026-0.096 0.026-0.148 0-0.025-0.002-0.050-0.006-0.073-0.015-0.091-0.043-0.175-0.082-0.252-0.048-0.1-0.098-0.187-0.154-0.271-0.050-0.076-0.106-0.15-0.167-0.219-0.054-0.063-0.118-0.119-0.188-0.166-0.062-0.042-0.132-0.069-0.208-0.079-0.011-0.001-0.021-0.002-0.031-0.002-0.068 0-0.131 0.021-0.183 0.056-0.066 0.039-0.118 0.097-0.149 0.167-0.021 0.051-0.033 0.107-0.033 0.166 0 0.017 0.001 0.034 0.003 0.050 0.009 0.087 0.033 0.168 0.067 0.243z"></path>
<path class="path6" fill="var(--color1, #5c5857)" d="M19.059 4.566c-0.019-0.043-0.048-0.079-0.084-0.105-0.025-0.018-0.053-0.033-0.084-0.042-0.034-0.011-0.072-0.019-0.11-0.020-0.008-0.001-0.017-0.001-0.026-0.001-0.056 0-0.109 0.014-0.156 0.038-0.053 0.029-0.098 0.069-0.134 0.117-0.036 0.054-0.066 0.115-0.085 0.181-0.025 0.071-0.044 0.148-0.055 0.228l0.756 0.047q0.009-0.073 0.015-0.152c0.002-0.023 0.003-0.050 0.003-0.077s-0.001-0.054-0.003-0.080c-0.005-0.047-0.018-0.094-0.038-0.137z"></path>
<path class="path7" fill="var(--color1, #5c5857)" d="M19.446 8.589l-1.454 1.412 0.077 0.060z"></path>
<path class="path8" fill="var(--color1, #5c5857)" d="M15.651 8.087l1.635 1.582-1.565-1.651-0.071 0.070z"></path>
<path class="path9" fill="var(--color1, #5c5857)" d="M27.020 20.618s-0.016 0.011-0.041 0.038-0.054 0.062-0.090 0.105-0.073 0.089-0.113 0.14-0.077 0.098-0.11 0.141-0.060 0.081-0.085 0.111-0.031 0.045-0.026 0.044c0.048-0.005 0.091-0.022 0.129-0.046 0.056-0.033 0.106-0.068 0.152-0.108 0.050-0.043 0.096-0.088 0.14-0.136 0.038-0.042 0.071-0.087 0.098-0.137 0.018-0.029 0.027-0.060 0.027-0.093 0-0.006-0-0.011-0.001-0.017-0.003-0.027-0.030-0.042-0.079-0.044z"></path>
<path class="path10" fill="var(--color1, #5c5857)" d="M16.111 22.122c0.062-0.056 0.118-0.116 0.168-0.181q0.066-0.088 0.045-0.131c-0.063-0.038-0.139-0.062-0.221-0.065-0.009-0-0.019-0.001-0.029-0.001-0.078 0-0.153 0.012-0.223 0.035-0.086 0.028-0.165 0.066-0.237 0.114-0.072 0.047-0.137 0.105-0.191 0.172-0.052 0.064-0.092 0.137-0.117 0.217-0.012 0.042-0.019 0.084-0.019 0.128s0.006 0.087 0.018 0.127q0.009 0.052 0.096 0.033c0.078-0.020 0.147-0.049 0.209-0.087 0.096-0.057 0.179-0.113 0.259-0.173 0.086-0.061 0.166-0.124 0.243-0.192z"></path>
<path class="path11" fill="var(--color1, #5c5857)" d="M11.219 22.249c0.090-0.001 0.174-0.026 0.247-0.068 0.114-0.060 0.214-0.129 0.306-0.209 0.109-0.093 0.208-0.195 0.296-0.306 0.091-0.114 0.166-0.239 0.225-0.373 0.058-0.131 0.089-0.271 0.089-0.419 0-0.002 0-0.004-0-0.006-0.031-0.029-0.072-0.047-0.118-0.047-0.027 0-0.053 0.006-0.075 0.017-0.102 0.038-0.192 0.088-0.272 0.151-0.108 0.082-0.205 0.169-0.295 0.264-0.095 0.099-0.184 0.204-0.266 0.315-0.075 0.1-0.139 0.204-0.192 0.313-0.042 0.076-0.064 0.152-0.064 0.234 0 0.008 0 0.015 0.001 0.023 0.002 0.061 0.053 0.11 0.115 0.11 0.001 0 0.002-0 0.004-0z"></path>
<path class="path12" fill="var(--color1, #5c5857)" d="M23.058 20.952c-0.087 0.059-0.162 0.129-0.225 0.209-0.081 0.099-0.155 0.207-0.22 0.321-0.067 0.116-0.129 0.241-0.183 0.37-0.051 0.121-0.089 0.239-0.115 0.361-0.014 0.050-0.020 0.094-0.020 0.138s0.006 0.088 0.019 0.129c0.013 0.046 0.057 0.081 0.109 0.081 0.010 0 0.021-0.001 0.030-0.004 0.086-0.023 0.16-0.066 0.221-0.124 0.092-0.082 0.173-0.172 0.243-0.271 0.085-0.114 0.159-0.237 0.221-0.368 0.062-0.136 0.107-0.279 0.132-0.428 0.011-0.063 0.017-0.124 0.017-0.187 0-0.088-0.011-0.174-0.032-0.256-0.023-0.007-0.052-0.015-0.082-0.015-0.044 0-0.084 0.016-0.114 0.044z"></path>
<path class="path13" fill="var(--color1, #5c5857)" d="M25.225 21.229c-0.088 0.016-0.167 0.045-0.237 0.087-0.076 0.044-0.145 0.097-0.206 0.159s-0.113 0.13-0.153 0.207c-0.038 0.074-0.062 0.156-0.069 0.242-0.001 0.013-0.002 0.025-0.002 0.038 0 0.076 0.019 0.148 0.052 0.21q0.021 0.049 0.102 0.013c0.070-0.036 0.131-0.078 0.184-0.129 0.076-0.068 0.146-0.139 0.212-0.213 0.069-0.076 0.134-0.156 0.195-0.239 0.053-0.071 0.096-0.142 0.133-0.216q0.048-0.104 0.019-0.142c-0.044-0.015-0.095-0.024-0.148-0.024-0.029 0-0.058 0.003-0.085 0.008z"></path>
<path class="path14" fill="var(--color1, #5c5857)" d="M33.863 11.539h-0.247c-0.006-0.036-0.013-0.067-0.022-0.097-0.21-0.716-1.373-1.079-1.681-1.753s0.17-1.799-0.229-2.424-1.623-0.649-2.112-1.212-0.34-1.773-0.901-2.262-1.737-0.17-2.366-0.572-0.819-1.603-1.501-1.917-1.71 0.331-2.427 0.119-1.239-1.307-1.986-1.413c-0.728-0.104-1.542 0.802-2.297 0.802s-1.572-0.906-2.301-0.802c-0.747 0.106-1.276 1.206-1.982 1.414s-1.758-0.425-2.432-0.12-0.876 1.515-1.5 1.918-1.804 0.085-2.366 0.572-0.412 1.702-0.901 2.262-1.707 0.583-2.112 1.212 0.085 1.742-0.229 2.424-1.472 1.037-1.683 1.759c-0.007 0.024-0.014 0.055-0.020 0.086l-0.245 0.005c-1.283 0-2.324 1.040-2.325 2.324v4.274c0 1.284 1.041 2.325 2.325 2.325h0.243c0.006 0.036 0.013 0.067 0.022 0.097 0.21 0.716 1.373 1.079 1.681 1.753s-0.17 1.799 0.229 2.424 1.626 0.649 2.113 1.216 0.34 1.773 0.901 2.262 1.737 0.17 2.366 0.572 0.819 1.606 1.5 1.918 1.71-0.331 2.432-0.12 1.235 1.308 1.982 1.414c0.728 0.104 1.542-0.802 2.297-0.802s1.571 0.906 2.297 0.802c0.747-0.106 1.276-1.206 1.982-1.414s1.758 0.425 2.432 0.12 0.875-1.515 1.5-1.918 1.804-0.085 2.366-0.572 0.412-1.702 0.901-2.262 1.707-0.584 2.112-1.212-0.085-1.742 0.229-2.424 1.472-1.037 1.683-1.759c0.007-0.024 0.014-0.055 0.020-0.086l0.252-0.005c1.284 0 2.325-1.041 2.325-2.325v-4.277c-0.001-1.283-1.041-2.324-2.325-2.324zM33.819 13.864c0.035-0.067 0.081-0.123 0.135-0.169 0.055-0.048 0.117-0.086 0.185-0.114 0.066-0.027 0.137-0.043 0.212-0.043 0.004-0 0.009-0 0.014-0 0.074 0 0.145 0.014 0.211 0.039 0.055 0.022 0.105 0.055 0.147 0.097 0.038 0.040 0.067 0.089 0.084 0.144 0.019 0.055 0.030 0.116 0.030 0.18 0 0.001 0 0.001 0 0.002 0 0.002 0 0.004 0 0.006 0 0.079-0.019 0.154-0.052 0.22-0.032 0.064-0.076 0.12-0.13 0.167-0.108 0.092-0.247 0.147-0.4 0.148-0 0-0.001 0-0.001 0-0.065 0-0.128-0.012-0.186-0.033-0.057-0.020-0.109-0.051-0.154-0.090s-0.082-0.086-0.109-0.14c-0.028-0.056-0.043-0.12-0.043-0.186 0-0.002 0-0.005 0-0.007s-0-0.004-0-0.006c0-0.078 0.019-0.152 0.053-0.217zM32.634 15.65l-0.813 0.798 1.076 1.554 0.34 0.060v0.329h-1.566v-0.329l0.298-0.074-0.67-1.085-0.369 0.395 0.026 0.369v0.329l0.369 0.069v0.327h-1.6v-0.327l0.421-0.077v-3.602l-0.484-0.16v-0.34l1.148-0.157 0.149 0.071v2.562l-0.026 0.418 1.076-1.125-0.484-0.054v-0.421h1.623v0.421zM27.244 20.5c0.008 0.037 0.015 0.082 0.019 0.128 0.002 0.022 0.003 0.043 0.003 0.064s-0.001 0.042-0.002 0.062c-0 0.025-0.006 0.051-0.016 0.075-0.033 0.052-0.074 0.098-0.12 0.136l-0.211 0.189q-0.116 0.102-0.231 0.209c-0.067 0.061-0.126 0.127-0.179 0.198-0.041 0.050-0.065 0.109-0.069 0.173q-0 0.077 0.12 0.112c0.095-0.014 0.181-0.039 0.262-0.075q0.141-0.057 0.29-0.134t0.288-0.155 0.227-0.125l0.046 0.026c-0.046 0.089-0.109 0.163-0.186 0.22-0.093 0.075-0.195 0.143-0.302 0.201-0.107 0.059-0.219 0.109-0.336 0.148-0.089 0.033-0.174 0.049-0.264 0.049-0.011 0-0.021-0-0.032-0.001-0.063-0.003-0.122-0.025-0.169-0.063-0.041-0.034-0.074-0.077-0.097-0.126-0.023-0.050-0.039-0.106-0.045-0.164-0.003-0.028-0.004-0.057-0.004-0.087s0.001-0.060 0.004-0.089q0.070-0.12 0.158-0.279t0.19-0.317c0.075-0.114 0.147-0.212 0.225-0.306 0.069-0.084 0.153-0.162 0.247-0.227 0.018-0.017 0.037-0.025 0.058-0.025 0.010 0 0.019 0.002 0.027 0.005 0.026 0.014 0.047 0.036 0.060 0.063 0.016 0.033 0.029 0.071 0.036 0.11zM25.686 21.611q0.027 0.132 0.058 0.255c0.014 0.035 0.037 0.064 0.067 0.085 0.027 0.018 0.057 0.036 0.089 0.051l0.1 0.046c0.033 0.014 0.061 0.034 0.085 0.058-0.001 0.026-0.019 0.047-0.043 0.052-0.013 0.003-0.028 0.005-0.043 0.005s-0.030-0.002-0.044-0.005c-0.031-0.006-0.059-0.015-0.087-0.026l-0.046-0.020c-0.087-0.039-0.159-0.099-0.21-0.174-0.049-0.074-0.091-0.156-0.124-0.244l-0.038-0.002c-0.122 0.143-0.251 0.272-0.39 0.389-0.090 0.077-0.188 0.138-0.294 0.183-0.043 0.020-0.086 0.030-0.13 0.030-0.030 0-0.059-0.005-0.087-0.013-0.051-0.020-0.093-0.060-0.114-0.111-0.019-0.047-0.029-0.1-0.029-0.156 0-0.016 0.001-0.033 0.003-0.049 0.003-0.032 0.007-0.064 0.013-0.094-0.041 0.042-0.086 0.077-0.131 0.114-0.069 0.052-0.148 0.104-0.229 0.151-0.084 0.049-0.169 0.085-0.258 0.112-0.063 0.019-0.127 0.028-0.193 0.028-0.021 0-0.041-0.001-0.061-0.003-0.076-0.007-0.146-0.041-0.198-0.093-0.024-0.020-0.045-0.044-0.061-0.070s-0.038-0.047-0.064-0.062q-0.044 0.050-0.104 0.13t-0.13 0.161c-0.049 0.056-0.098 0.106-0.151 0.154-0.050 0.047-0.106 0.086-0.168 0.116-0.058 0.029-0.122 0.044-0.189 0.045-0.072-0.001-0.139-0.025-0.193-0.064-0.057-0.041-0.097-0.105-0.105-0.179-0.008-0.044-0.012-0.094-0.012-0.145s0.004-0.101 0.013-0.149c0.022-0.124 0.054-0.239 0.095-0.348 0.046-0.124 0.1-0.239 0.163-0.349 0.060-0.105 0.131-0.206 0.21-0.299 0.067-0.081 0.147-0.151 0.238-0.208 0.074-0.047 0.159-0.073 0.251-0.073 0.003 0 0.006 0 0.009 0 0.098 0.008 0.184 0.053 0.244 0.121 0.044 0.042 0.077 0.093 0.095 0.152 0.012 0.041 0.018 0.085 0.018 0.131 0 0.015-0.001 0.029-0.002 0.043-0.005 0.064-0.017 0.126-0.034 0.184q-0.024 0.086-0.048 0.18c-0.014 0.053-0.027 0.117-0.034 0.183-0.003 0.024-0.004 0.045-0.004 0.066 0 0.046 0.006 0.091 0.017 0.134q0.029 0.117 0.124 0.129c0.011 0.001 0.024 0.002 0.037 0.002 0.067 0 0.13-0.014 0.188-0.040 0.098-0.040 0.184-0.088 0.264-0.145q0.132-0.091 0.251-0.182t0.267-0.225h0.008c0.024-0.040 0.047-0.073 0.071-0.105 0.062-0.081 0.137-0.153 0.222-0.211 0.092-0.062 0.194-0.11 0.304-0.14 0.086-0.023 0.176-0.035 0.269-0.035 0.045 0 0.089 0.003 0.132 0.008l0.024-0.045 0.283-0.936c0.005-0.001 0.011-0.001 0.017-0.001 0.043 0 0.080 0.025 0.098 0.060 0.015 0.035 0.023 0.075 0.023 0.117 0 0.009-0 0.017-0.001 0.026-0.003 0.056-0.012 0.11-0.027 0.162q-0.020 0.072-0.030 0.107l-0.024 0.080q-0.018 0.059-0.042 0.14t-0.051 0.17q-0.027 0.090-0.051 0.17t-0.043 0.142q-0.020 0.060-0.023 0.078c-0.014 0.045-0.021 0.096-0.021 0.149 0 0.035 0.003 0.070 0.010 0.103zM20.59 26.825l0.584-0.705h-0.362l0.448-0.542h-0.279l0.558-0.676 0.559 0.676h-0.279l0.448 0.543h-0.363l0.583 0.705h-0.832v0.237h-0.23v-0.237zM16.060 28.313l1.252-1.512h-0.78l0.961-1.163h-0.596l1.199-1.446 1.198 1.446h-0.596l0.956 1.163h-0.779l1.25 1.514h-1.787v0.511h-0.492v-0.511zM13.698 26.825l0.584-0.705h-0.363l0.448-0.542h-0.28l0.559-0.676 0.558 0.676h-0.279l0.448 0.542h-0.365l0.583 0.705h-0.832v0.237h-0.23v-0.237zM10.444 20.819q-0.106-0.014-0.234-0.021t-0.267-0.007-0.271 0.006l-0.247 0.013q-0.114 0.007-0.189 0.014c-0.052 0.071-0.101 0.151-0.142 0.236q-0.070 0.146-0.139 0.283t-0.142 0.263c-0.048 0.082-0.105 0.152-0.17 0.213-0.007-0.006-0.012-0.012-0.017-0.020s-0.010-0.015-0.014-0.023c-0.005-0.020-0.008-0.042-0.008-0.065 0-0.034 0.006-0.066 0.018-0.095 0.027-0.087 0.059-0.162 0.096-0.233q0.058-0.116 0.14-0.247t0.162-0.255q0.079-0.121 0.145-0.215l0.094-0.139q0.032-0.043 0.085-0.122l0.121-0.17 0.138-0.197 0.138-0.199q0.066-0.095 0.121-0.17l0.085-0.123q0.074-0.007 0.091 0.025c0.006 0.014 0.009 0.029 0.009 0.046 0 0.014-0.002 0.028-0.007 0.040-0.023 0.054-0.048 0.102-0.079 0.146q-0.053 0.082-0.121 0.173l-0.14 0.191q-0.072 0.097-0.133 0.185c-0.033 0.046-0.066 0.099-0.095 0.155-0.025 0.043-0.039 0.086-0.043 0.131 0.038 0.014 0.082 0.024 0.128 0.030q0.079 0.011 0.159 0.015t0.16 0.005 0.139 0c0.038 0.003 0.083 0.005 0.128 0.005 0.128 0 0.253-0.015 0.373-0.043 0.119-0.031 0.233-0.087 0.332-0.163 0.102-0.081 0.192-0.176 0.268-0.281q0.13-0.179 0.297-0.411 0.040-0.048 0.060-0.035c0.015 0.012 0.025 0.031 0.026 0.052 0.002 0.013 0.002 0.028 0.002 0.043s-0.001 0.030-0.003 0.044c0 0.021-0.005 0.043-0.014 0.063-0.009 0.013-0.018 0.025-0.028 0.036l-0.049 0.060-0.049 0.059c-0.009 0.011-0.018 0.022-0.026 0.035-0.009 0.013-0.018 0.025-0.025 0.039-0.012 0.020-0.024 0.041-0.037 0.062s-0.026 0.042-0.037 0.060-0.018 0.032-0.022 0.040c0.027 0.021 0.048 0.050 0.057 0.084-0.005 0.047-0.028 0.087-0.061 0.115-0.044 0.045-0.092 0.087-0.143 0.125l-0.161 0.117c-0.044 0.030-0.082 0.067-0.111 0.11-0.115 0.164-0.235 0.355-0.345 0.552-0.116 0.209-0.21 0.415-0.288 0.629-0.020 0.041-0.032 0.049-0.045 0.056-0.006 0.003-0.012 0.005-0.018 0.005-0.010 0-0.018-0.004-0.025-0.011 0.012-0.071 0.030-0.135 0.055-0.195q0.042-0.112 0.102-0.249t0.127-0.279 0.124-0.259l0.094-0.197c0.014-0.024 0.026-0.053 0.035-0.082-0.047-0.024-0.102-0.041-0.16-0.050zM9.909 9.26l0.282 0.159-0.17-0.234-0.681-1.069 0.275-0.301 1.115 0.596 0.27 0.149-0.17-0.248-0.533-0.795-0.181 0.131-0.185-0.17 0.53-0.574 0.184 0.17-0.117 0.201 0.886 1.457-0.307 0.334-0.99-0.493-0.282-0.162 0.19 0.264 0.59 0.927-0.294 0.319-1.572-0.731-0.157 0.109-0.185-0.17 0.591-0.642 0.185 0.17-0.1 0.174zM11.238 6.637c0.034-0.125 0.091-0.234 0.165-0.329 0.076-0.097 0.166-0.182 0.268-0.251 0.109-0.076 0.232-0.131 0.364-0.163 0.060-0.014 0.12-0.022 0.182-0.022s0.122 0.007 0.18 0.021c0.117 0.032 0.223 0.087 0.314 0.161 0.105 0.086 0.195 0.187 0.268 0.301 0.084 0.124 0.144 0.264 0.177 0.414 0.014 0.066 0.021 0.133 0.021 0.202s-0.007 0.136-0.021 0.2c-0.027 0.123-0.079 0.238-0.151 0.337-0.073 0.1-0.164 0.187-0.268 0.255-0.121 0.084-0.259 0.143-0.408 0.172-0.046 0.008-0.091 0.012-0.137 0.012-0.084 0-0.165-0.013-0.241-0.038-0.116-0.039-0.221-0.102-0.309-0.182-0.097-0.086-0.182-0.185-0.251-0.294-0.082-0.123-0.139-0.261-0.166-0.41-0.009-0.052-0.013-0.104-0.013-0.157 0-0.082 0.011-0.161 0.031-0.236zM13.253 5.776c0.010-0.262 0.131-0.495 0.319-0.651 0.093-0.079 0.199-0.144 0.314-0.191 0.124-0.053 0.259-0.084 0.4-0.088 0.003-0 0.004-0 0.006-0 0.122 0 0.238 0.029 0.34 0.079 0.105 0.054 0.197 0.129 0.271 0.22 0.084 0.104 0.152 0.222 0.2 0.35 0.057 0.14 0.088 0.292 0.088 0.451 0 0.001 0 0.001 0 0.002-0.002 0.138-0.033 0.268-0.088 0.385-0.050 0.112-0.123 0.212-0.213 0.295-0.092 0.083-0.199 0.149-0.316 0.195-0.127 0.053-0.266 0.083-0.412 0.083-0.011 0-0.023-0-0.034-0.001-0.129-0.006-0.25-0.043-0.355-0.104-0.103-0.062-0.192-0.143-0.263-0.24-0.074-0.102-0.136-0.217-0.18-0.34-0.051-0.128-0.078-0.266-0.078-0.41 0-0.013 0-0.025 0.001-0.037zM16.556 3.801l-0.381-0.026-0.030-0.202 0.741-0.191 0.103 0.028 0.381 2.518 0.235-0.036 0.024 0.157c-0.049 0.033-0.105 0.062-0.165 0.083-0.082 0.032-0.172 0.056-0.265 0.069-0.027 0.005-0.051 0.007-0.076 0.007-0.036 0-0.071-0.005-0.104-0.015-0.046-0.017-0.084-0.056-0.099-0.105-0.023 0.021-0.047 0.042-0.073 0.061-0.033 0.025-0.069 0.046-0.107 0.064-0.044 0.021-0.093 0.040-0.144 0.056-0.062 0.019-0.126 0.034-0.192 0.044-0.039 0.006-0.076 0.008-0.114 0.008-0.063 0-0.124-0.008-0.183-0.022-0.101-0.024-0.193-0.071-0.272-0.134-0.090-0.073-0.166-0.163-0.223-0.265-0.070-0.128-0.118-0.271-0.138-0.424-0.009-0.056-0.014-0.115-0.014-0.174 0-0.092 0.012-0.18 0.034-0.265 0.035-0.13 0.095-0.251 0.175-0.355 0.082-0.104 0.183-0.191 0.298-0.258 0.119-0.071 0.253-0.12 0.396-0.141q0.060-0.009 0.125-0.014c0.021-0.002 0.045-0.002 0.069-0.002s0.048 0.001 0.072 0.003zM17.557 9.967c-0.075-0.085-0.183-0.139-0.303-0.141h-0.013l-1.737-1.753 0.362-0.357 1.737 1.754v0.013c0.001 0.121 0.054 0.23 0.138 0.305 0.055 0.051 0.113 0.101 0.171 0.148l1.14-1.161c0.229-0.242 0.322-0.389 0.305-0.5-0.163-0.151-0.511-0.362-1.23-0.049-0.009 0.005-0.020 0.008-0.031 0.008-0.020 0-0.039-0.010-0.050-0.025-0.007-0.012-0.010-0.027-0.010-0.042 0-0.027 0.012-0.051 0.031-0.067 0.004-0.004 0.008-0.007 0.012-0.010-0.002-0-0.005 0-0.007 0-0.019 0-0.037-0.006-0.051-0.016-0.017-0.012-0.028-0.032-0.028-0.054 0-0.001 0-0.002 0-0.004 0.001-0.039 0.026-0.072 0.061-0.085 1.162-0.511 1.673-0.098 1.979 0.149l0.027 0.021c0.123 0.086 0.217 0.206 0.27 0.346 0.013 0.042 0.031 0.074 0.055 0.101l0.153 0.148c0.053 0.049 0.119 0.083 0.193 0.096 0.035 0.006 0.064 0.021 0.088 0.041l0.154 0.151c0.013 0.013 0.022 0.032 0.022 0.052s-0.008 0.039-0.022 0.052l-0.397 0.404c-0.013 0.013-0.032 0.021-0.052 0.021s-0.039-0.008-0.052-0.021l-0.151-0.132c-0.020-0.023-0.033-0.052-0.033-0.085 0-0.042-0.030-0.158-0.269-0.318-0.165-0.111-0.362-0.136-0.44-0.057-0.060 0.062-0.132 0.131-0.17 0.17l-1.129 1.14 0.033 0.023c0.010-0.006 0.022-0.009 0.034-0.009 0.020 0 0.038 0.008 0.051 0.022l0.118 0.12c0.11-0.051 0.182 0.013 0.316 0.147 0.074 0.066 0.128 0.153 0.152 0.252 0.009 0.049 0.030 0.089 0.061 0.119 0.033 0.033 0.075 0.056 0.122 0.065 0.096 0.024 0.177 0.074 0.238 0.142l1.267 1.277c0.012 0.011 0.020 0.028 0.020 0.046 0 0.009-0.002 0.018-0.006 0.026l0.108 0.109c0.022 0.021 0.036 0.051 0.036 0.084 0 0.001 0 0.001 0 0.002 0 0.085-0.085 0.17-0.158 0.236l-0.025 0.024-0.023 0.023c-0.069 0.070-0.155 0.157-0.238 0.157-0 0-0 0-0.001 0-0.033 0-0.063-0.014-0.084-0.037l-0.108-0.104c-0.007 0.003-0.016 0.005-0.025 0.005-0.018 0-0.035-0.008-0.046-0.021l-1.267-1.276c-0.068-0.062-0.117-0.143-0.139-0.235-0.010-0.052-0.033-0.094-0.065-0.127-0.030-0.031-0.070-0.053-0.114-0.061-0.104-0.026-0.191-0.080-0.256-0.155-0.126-0.127-0.189-0.2-0.153-0.298l-0.010-0.008-0.098-0.099-2.289 2.33c-0.022 0.022-0.052 0.036-0.085 0.036s-0.063-0.014-0.085-0.036l-0.328-0.32c-0.022-0.022-0.035-0.052-0.035-0.085s0.014-0.063 0.035-0.085l2.401-2.445c-0.019-0.029-0.049-0.058-0.074-0.086zM18.305 5.219c0 0.001 0 0.002 0 0.004s-0 0.003-0 0.004c-0 0.005-0 0.011-0 0.018 0 0.101 0.016 0.199 0.045 0.291 0.023 0.073 0.063 0.143 0.114 0.201 0.048 0.052 0.107 0.094 0.173 0.122 0.068 0.028 0.143 0.045 0.222 0.049q0.065 0 0.136 0t0.141-0.013c0.054-0.008 0.1-0.017 0.145-0.029 0.039-0.010 0.080-0.025 0.119-0.042l0.064 0.191c-0.043 0.033-0.093 0.061-0.145 0.083-0.058 0.025-0.123 0.045-0.19 0.061-0.070 0.016-0.145 0.028-0.221 0.034-0.039 0.003-0.079 0.005-0.119 0.005s-0.080-0.002-0.119-0.005c-0.137-0.006-0.269-0.039-0.39-0.093-0.104-0.048-0.197-0.118-0.271-0.205-0.074-0.089-0.13-0.193-0.161-0.308-0.028-0.102-0.043-0.213-0.043-0.328 0-0.030 0.001-0.060 0.003-0.089 0.007-0.143 0.040-0.281 0.095-0.408 0.052-0.116 0.128-0.221 0.22-0.308s0.201-0.156 0.322-0.202c0.113-0.042 0.235-0.065 0.363-0.065 0.023 0 0.045 0.001 0.067 0.002 0.112 0.003 0.22 0.027 0.319 0.068 0.163 0.068 0.29 0.209 0.34 0.382 0.026 0.086 0.040 0.18 0.040 0.277 0 0.009-0 0.017-0 0.026-0.001 0.066-0.006 0.131-0.016 0.195q-0.012 0.073-0.024 0.139l-1.224-0.066c-0.001 0.002-0.002 0.005-0.003 0.008zM20.15 4.641l0.044-0.162 0.58-0.012 0.093 0.061-0.066 0.236c0.048-0.025 0.105-0.047 0.163-0.065 0.062-0.019 0.127-0.032 0.195-0.040 0.048-0.006 0.098-0.009 0.148-0.009 0.020 0 0.041 0 0.061 0.001 0.067 0.003 0.132 0.013 0.195 0.029 0.088 0.021 0.171 0.062 0.242 0.117 0.058 0.047 0.102 0.111 0.127 0.184 0.019 0.060 0.029 0.126 0.029 0.194 0 0.025-0.001 0.050-0.004 0.074-0.013 0.124-0.036 0.24-0.069 0.351l-0.247 0.892 0.235 0.107-0.052 0.188-0.955-0.264 0.052-0.188 0.255 0.024 0.231-0.834c0.020-0.066 0.038-0.147 0.051-0.23 0.005-0.030 0.007-0.053 0.007-0.076 0-0.037-0.005-0.073-0.015-0.107-0.015-0.045-0.044-0.085-0.084-0.112-0.052-0.034-0.113-0.060-0.178-0.074-0.025-0.005-0.050-0.009-0.077-0.012-0.017-0.001-0.033-0.002-0.050-0.002s-0.033 0.001-0.049 0.002c-0.035 0.002-0.070 0.006-0.105 0.012-0.033 0.005-0.066 0.014-0.099 0.026l-0.336 1.222 0.209 0.102-0.048 0.189-0.904-0.255 0.052-0.188 0.225 0.021 0.327-1.195zM24.436 6.454c-0.014-0.049-0.039-0.091-0.072-0.125-0.039-0.039-0.082-0.074-0.129-0.104-0.045-0.030-0.094-0.056-0.144-0.078-0.043-0.019-0.092-0.036-0.141-0.051-0.046-0.014-0.090-0.025-0.135-0.032-0.047-0.008-0.081-0.012-0.11-0.014l0.040-0.232c0.015-0.002 0.033-0.002 0.051-0.002 0.032 0 0.063 0.003 0.094 0.008 0.070 0.011 0.134 0.026 0.196 0.045 0.078 0.025 0.15 0.054 0.22 0.087 0.076 0.035 0.15 0.076 0.22 0.122 0.079 0.051 0.154 0.112 0.222 0.179 0.059 0.058 0.106 0.128 0.137 0.206 0.019 0.053 0.029 0.11 0.029 0.169 0 0.032-0.003 0.063-0.008 0.093-0.024 0.114-0.069 0.217-0.132 0.307l-0.594 0.915 0.185 0.12-0.085 0.128c-0.034-0-0.066-0.005-0.097-0.013-0.036-0.009-0.069-0.020-0.101-0.033-0.034-0.014-0.066-0.029-0.096-0.046q-0.042-0.023-0.080-0.049c-0.023-0.015-0.043-0.031-0.062-0.047-0.022-0.019-0.041-0.041-0.056-0.066s-0.026-0.055-0.028-0.086c-0-0.002-0-0.003-0-0.005 0-0.037 0.012-0.071 0.032-0.099l0.008-0.012c-0.046 0.010-0.099 0.015-0.153 0.015-0.038 0-0.076-0.003-0.113-0.008-0.107-0.018-0.207-0.060-0.293-0.119-0.091-0.056-0.169-0.129-0.232-0.214-0.050-0.069-0.085-0.15-0.099-0.237-0.003-0.023-0.005-0.046-0.005-0.069 0-0.061 0.011-0.119 0.032-0.173 0.031-0.079 0.076-0.15 0.134-0.21 0.046-0.051 0.105-0.090 0.172-0.113 0.065-0.022 0.137-0.034 0.212-0.034 0.002 0 0.005 0 0.007 0 0.083 0.001 0.164 0.011 0.241 0.030 0.084 0.020 0.162 0.044 0.236 0.073 0.073 0.028 0.142 0.059 0.209 0.094 0.057 0.028 0.112 0.060 0.166 0.094l0.027-0.059c0.040-0.058 0.073-0.124 0.094-0.196 0.007-0.028 0.011-0.055 0.011-0.082s-0.004-0.054-0.010-0.079zM25.44 7.143l0.114-0.123 0.521 0.255 0.054 0.094-0.207 0.223c0.045-0.022 0.099-0.036 0.155-0.036 0.005-0 0.011-0 0.017-0 0.056 0 0.111 0.006 0.163 0.018 0.058 0.013 0.113 0.032 0.165 0.056 0.043 0.019 0.084 0.046 0.121 0.078q0.042 0.039 0.075 0.075c0.016 0.016 0.030 0.035 0.041 0.055l-0.311 0.337c-0.014-0.049-0.035-0.091-0.061-0.129-0.031-0.047-0.067-0.089-0.108-0.126-0.030-0.029-0.062-0.055-0.096-0.079-0.027-0.019-0.055-0.036-0.084-0.050-0.024-0.012-0.048-0.021-0.073-0.029-0.018-0.005-0.038-0.010-0.057-0.013l-0.834 0.895 0.285 0.334-0.133 0.143-0.853-0.785 0.133-0.143 0.208 0.128 0.843-0.909zM26.683 8.31l0.129-0.104 0.085 0.068c0.021 0.017 0.045 0.033 0.070 0.048 0.023 0.013 0.045 0.024 0.069 0.031 0.020 0.006 0.041 0.009 0.062 0.009 0.006 0 0.012-0 0.018-0.001 0.030-0.001 0.059-0.005 0.087-0.012q0.047-0.010 0.106-0.027t0.122-0.040 0.122-0.048l0.148 0.188-0.357 0.285 0.362 0.454-0.208 0.17-0.356-0.448-0.568 0.454q-0.17 0.134-0.265 0.221c-0.051 0.044-0.097 0.093-0.135 0.146-0.023 0.029-0.035 0.062-0.035 0.099 0 0.003 0 0.007 0 0.010 0.008 0.036 0.025 0.069 0.048 0.095 0.018 0.022 0.037 0.043 0.057 0.062q0.034 0.033 0.069 0.062c0.020 0.017 0.043 0.034 0.066 0.049 0.020 0.013 0.039 0.024 0.059 0.032l-0.090 0.171c-0.047-0.005-0.091-0.017-0.131-0.036-0.053-0.025-0.1-0.053-0.144-0.086-0.051-0.035-0.097-0.073-0.14-0.113s-0.086-0.085-0.123-0.131c-0.046-0.055-0.082-0.116-0.106-0.184-0.011-0.033-0.016-0.066-0.016-0.1 0-0.026 0.003-0.052 0.009-0.077 0.018-0.064 0.049-0.12 0.090-0.169 0.055-0.066 0.116-0.124 0.182-0.176l0.876-0.7zM28.418 17.492c-0.049-0.057-0.105-0.106-0.167-0.145-0.072-0.046-0.154-0.090-0.238-0.129l-0.302-0.138q-0.189-0.085-0.363-0.191c-0.117-0.068-0.218-0.144-0.31-0.231-0.086-0.081-0.157-0.178-0.21-0.285-0.051-0.108-0.079-0.227-0.079-0.352 0-0.010 0-0.020 0.001-0.030 0-0.103 0.023-0.202 0.063-0.291 0.039-0.083 0.091-0.158 0.154-0.222 0.065-0.066 0.139-0.122 0.22-0.168s0.169-0.084 0.262-0.115c0.091-0.031 0.187-0.055 0.286-0.071 0.092-0.015 0.188-0.024 0.285-0.027 0.019-0 0.038-0.001 0.057-0.001 0.088 0 0.175 0.004 0.261 0.012q0.14 0.014 0.276 0.039t0.249 0.059c0.076 0.021 0.139 0.044 0.2 0.071l-0.010 0.706h-0.39l-0.145-0.34c-0.054-0.059-0.116-0.109-0.185-0.149-0.079-0.044-0.17-0.069-0.266-0.069-0.001 0-0.003 0-0.004 0-0 0-0.001 0-0.002 0-0.069 0-0.136 0.007-0.2 0.022-0.056 0.012-0.111 0.034-0.161 0.065-0.044 0.027-0.082 0.064-0.11 0.109s-0.043 0.098-0.043 0.155c0 0.003 0 0.006 0 0.009-0 0.004-0 0.009-0 0.015 0 0.067 0.018 0.129 0.050 0.182 0.038 0.061 0.084 0.115 0.139 0.159 0.061 0.051 0.128 0.096 0.2 0.134q0.124 0.066 0.252 0.129l0.378 0.174c0.132 0.061 0.246 0.13 0.351 0.211 0.097 0.074 0.182 0.167 0.248 0.273 0.065 0.11 0.102 0.236 0.102 0.372 0 0.007-0 0.015-0 0.022s0 0.016 0 0.025c0 0.158-0.041 0.307-0.114 0.435-0.074 0.124-0.176 0.229-0.298 0.306-0.133 0.083-0.283 0.145-0.443 0.181-0.169 0.039-0.353 0.061-0.541 0.061-0.005 0-0.009 0-0.014-0-0.098-0-0.195-0.006-0.29-0.017-0.1-0.011-0.197-0.027-0.293-0.048-0.090-0.020-0.182-0.046-0.271-0.079-0.079-0.029-0.16-0.067-0.237-0.112l0.006-0.706h0.378l0.151 0.329q0.052 0.049 0.109 0.096c0.037 0.030 0.078 0.058 0.122 0.083 0.048 0.027 0.099 0.049 0.152 0.066 0.061 0.020 0.126 0.032 0.192 0.035 0.025 0.003 0.053 0.004 0.081 0.004 0.137 0 0.265-0.039 0.373-0.107 0.097-0.069 0.161-0.184 0.161-0.314 0-0.009-0-0.017-0.001-0.025-0.002-0.067-0.029-0.129-0.072-0.175zM25.928 18.066v0.327h-1.942v-0.327l0.401-0.069v-2.076l-0.398-0.255v-0.281l0.931-0.277 0.174 0.054v0.511c0.034-0.087 0.085-0.16 0.149-0.22 0.069-0.067 0.146-0.126 0.23-0.176 0.081-0.049 0.169-0.089 0.261-0.12 0.082-0.029 0.166-0.045 0.254-0.047q0.098-0 0.18 0.007c0.042 0.002 0.081 0.010 0.119 0.022l-0.003 0.765c-0.063-0.038-0.136-0.068-0.214-0.084-0.088-0.022-0.184-0.034-0.283-0.034-0 0-0.001 0-0.001 0-0.003-0-0.007-0-0.011-0-0.071 0-0.14 0.005-0.208 0.015-0.055 0.009-0.11 0.022-0.163 0.039-0.040 0.013-0.080 0.029-0.119 0.048-0.029 0.015-0.057 0.031-0.084 0.048l0.003 2.040zM20.599 17.953c-0.123-0.153-0.217-0.334-0.271-0.532-0.051-0.187-0.079-0.39-0.079-0.599 0-0.021 0-0.042 0.001-0.064-0-0.001-0-0.005-0-0.009 0-0.258 0.053-0.504 0.149-0.727 0.164-0.378 0.482-0.676 0.875-0.814 0.194-0.070 0.405-0.11 0.626-0.114 0.016-0 0.032-0.001 0.048-0.001 0.222 0 0.434 0.040 0.63 0.114 0.179 0.069 0.342 0.18 0.474 0.32 0.132 0.144 0.234 0.316 0.297 0.506 0.067 0.204 0.104 0.427 0.104 0.659 0 0.011-0 0.022-0 0.033 0 0.005 0 0.013 0 0.022 0 0.259-0.049 0.507-0.139 0.735-0.080 0.198-0.2 0.379-0.35 0.53-0.144 0.142-0.316 0.256-0.508 0.332s-0.404 0.118-0.625 0.118c-0.002 0-0.005 0-0.007 0-0.014 0-0.031 0.001-0.048 0.001-0.247 0-0.481-0.050-0.695-0.141-0.186-0.082-0.352-0.21-0.481-0.368zM12.128 14.332v-0.386h0.858q0.134 0 0.262-0.006t0.255-0.014q0.126-0.008 0.255-0.014t0.266-0.006c0.019-0 0.042-0.001 0.064-0.001 0.331 0 0.649 0.056 0.944 0.16 0.247 0.090 0.475 0.238 0.66 0.428 0.177 0.186 0.313 0.412 0.393 0.664 0.084 0.264 0.131 0.554 0.131 0.855 0 0.012-0 0.023-0 0.035 0 0.013 0 0.031 0 0.049 0 0.343-0.063 0.672-0.177 0.975-0.105 0.273-0.267 0.522-0.471 0.73-0.199 0.2-0.44 0.358-0.709 0.461s-0.564 0.16-0.873 0.16c-0.019 0-0.038-0-0.057-0.001q-0.104 0-0.222-0.006l-0.241-0.011-0.242-0.010q-0.12 0-0.229-0.004h-0.881v-0.332l0.443-0.103v-3.564zM19.983 15.608l-0.317 0.085-1.106 2.737h-0.636l-1.191-2.757-0.289-0.069v-0.415h1.483v0.418l-0.298 0.075 0.535 1.429 0.214 0.672 0.18-0.665 0.472-1.446-0.355-0.069v-0.421h1.311zM10.193 18.392h-1.724v-0.327l0.403-0.071v-3.659l-0.418-0.137v-0.335l1.088-0.132 0.143 0.057v4.202l0.511 0.075zM6.692 18.364c-0.144 0.065-0.311 0.103-0.488 0.103-0.012 0-0.023-0-0.035-0s-0.026 0.001-0.041 0.001c-0.175 0-0.343-0.033-0.497-0.092-0.131-0.052-0.249-0.136-0.344-0.242-0.086-0.098-0.148-0.218-0.178-0.35-0.016-0.072-0.024-0.148-0.024-0.226 0-0.071 0.007-0.14 0.020-0.207 0.020-0.116 0.070-0.224 0.143-0.314 0.076-0.093 0.166-0.173 0.267-0.238 0.106-0.068 0.224-0.125 0.347-0.169 0.118-0.046 0.248-0.087 0.382-0.119 0.123-0.028 0.252-0.049 0.382-0.063q0.199-0.020 0.336-0.020v-0.108c0-0.010 0-0.022 0-0.034 0-0.119-0.018-0.235-0.051-0.343-0.026-0.080-0.073-0.156-0.136-0.216-0.059-0.053-0.132-0.092-0.213-0.11-0.084-0.019-0.178-0.030-0.274-0.030-0.004 0-0.007 0-0.011 0 0 0-0 0-0.001 0-0.098 0-0.193 0.009-0.286 0.026s-0.179 0.037-0.263 0.062c-0.067 0.020-0.138 0.046-0.206 0.076q-0.083 0.037-0.146 0.071l-0.155-0.363c0.059-0.047 0.127-0.087 0.199-0.119 0.091-0.042 0.193-0.080 0.299-0.11 0.118-0.036 0.247-0.065 0.378-0.086 0.144-0.022 0.29-0.034 0.438-0.034 0.002 0 0.003 0 0.005 0 0.004-0 0.009-0 0.014-0 0.167 0 0.331 0.018 0.488 0.053 0.135 0.029 0.267 0.091 0.38 0.177 0.11 0.087 0.199 0.201 0.256 0.333 0.062 0.155 0.097 0.328 0.097 0.51 0 0.017-0 0.033-0.001 0.049l0 1.829h0.369v0.255c-0.041 0.026-0.088 0.050-0.138 0.067-0.052 0.019-0.109 0.035-0.168 0.046-0.054 0.014-0.113 0.026-0.173 0.034q-0.093 0.008-0.179 0.008c-0.046-0.001-0.090-0.004-0.134-0.011-0.048-0.007-0.096-0.022-0.14-0.043s-0.084-0.055-0.114-0.095c-0.031-0.045-0.049-0.1-0.049-0.159 0-0.004 0-0.009 0-0.013l-0-0.025c-0.102 0.097-0.22 0.177-0.35 0.237zM11.068 21.762c0.052-0.12 0.109-0.222 0.174-0.318 0.072-0.106 0.152-0.204 0.238-0.295 0.084-0.089 0.176-0.169 0.275-0.241 0.088-0.066 0.184-0.116 0.287-0.149 0.050-0.016 0.099-0.025 0.15-0.025 0.043 0 0.084 0.006 0.123 0.017 0.088 0.030 0.161 0.093 0.204 0.174 0.032 0.050 0.053 0.108 0.056 0.171 0 0.005 0 0.009 0 0.014 0 0.056-0.009 0.11-0.027 0.161-0.021 0.062-0.046 0.118-0.076 0.171q-0.045 0.081-0.091 0.166c-0.027 0.048-0.053 0.106-0.076 0.166-0.025 0.065-0.037 0.13-0.037 0.198-0.001 0.006-0.001 0.014-0.001 0.021 0 0.062 0.037 0.114 0.090 0.138 0.045 0.016 0.096 0.025 0.148 0.025 0.027 0 0.054-0.002 0.080-0.007 0.106-0.015 0.204-0.041 0.296-0.078q0.146-0.055 0.28-0.114t0.314-0.154q0.093-0.007 0.1 0.025t-0.048 0.085c-0.047 0.043-0.098 0.081-0.154 0.113-0.069 0.042-0.145 0.081-0.224 0.115-0.085 0.037-0.175 0.068-0.268 0.094-0.097 0.028-0.191 0.043-0.287 0.046-0.009 0-0.018 0.001-0.027 0.001-0.077 0-0.152-0.013-0.221-0.038-0.068-0.025-0.127-0.074-0.165-0.137-0.018-0.026-0.033-0.054-0.043-0.084-0.010-0.032-0.026-0.057-0.047-0.077q-0.055 0.038-0.132 0.101t-0.166 0.124c-0.052 0.037-0.113 0.075-0.176 0.109-0.066 0.036-0.131 0.061-0.2 0.076-0.033 0.007-0.066 0.011-0.1 0.011s-0.067-0.004-0.098-0.011c-0.066-0.018-0.124-0.056-0.167-0.107-0.039-0.045-0.062-0.103-0.062-0.167 0-0.012 0.001-0.024 0.002-0.036 0.009-0.104 0.035-0.201 0.076-0.29zM13.312 22.303l0.117-0.191q0.070-0.115 0.153-0.248l0.158-0.248q0.075-0.116 0.13-0.196c0.019-0.033 0.042-0.061 0.069-0.085 0.036 0.022 0.059 0.060 0.062 0.103-0.002 0.040-0.012 0.077-0.027 0.11q-0.023 0.053-0.052 0.11c-0.013 0.024-0.021 0.052-0.021 0.082 0 0.012 0.001 0.023 0.004 0.035l0.151-0.086q0.097-0.055 0.211-0.114t0.237-0.114c0.064-0.030 0.14-0.059 0.219-0.082 0.064-0.019 0.124-0.028 0.187-0.028 0.005 0 0.009 0 0.014 0 0.001-0 0.003-0 0.006-0 0.046 0 0.087 0.023 0.111 0.058 0.014 0.029 0.022 0.063 0.022 0.099 0 0.026-0.004 0.050-0.012 0.073-0.031 0.117-0.075 0.221-0.131 0.318l-0.052 0.099-0.096 0.178-0.096 0.177-0.055 0.105q0 0.013-0.012 0.046c-0.005 0.022-0.011 0.047-0.017 0.073-0.007 0.029-0.016 0.055-0.027 0.079-0.007 0.018-0.020 0.036-0.035 0.051q-0.021 0.018-0.045-0.008c-0.010-0.010-0.018-0.021-0.026-0.032-0-0.003-0-0.005-0-0.007 0-0.073 0.013-0.143 0.036-0.208 0.026-0.073 0.057-0.14 0.093-0.203q0.052-0.092 0.113-0.189c0.034-0.052 0.069-0.115 0.101-0.18s0.057-0.129 0.074-0.194c0.009-0.035 0.013-0.068 0.013-0.102s-0.004-0.066-0.012-0.098c-0.027-0.008-0.059-0.015-0.093-0.015s-0.066 0.007-0.095 0.018c-0.084 0.028-0.158 0.064-0.226 0.108-0.094 0.059-0.177 0.119-0.257 0.182q-0.128 0.1-0.255 0.208l-0.249 0.206c-0.061 0.053-0.129 0.105-0.199 0.154-0.051 0.038-0.101 0.064-0.156 0.080-0.009 0.003-0.015 0.004-0.022 0.004-0.029 0-0.052-0.022-0.055-0.050 0.013-0.030 0.028-0.056 0.047-0.080zM15.433 22.666c-0.017 0.003-0.036 0.005-0.056 0.005-0.054 0-0.105-0.015-0.148-0.040-0.045-0.030-0.078-0.077-0.089-0.133-0.004-0.022-0.006-0.045-0.006-0.069 0-0.048 0.008-0.094 0.023-0.137 0.026-0.085 0.064-0.161 0.111-0.231 0.054-0.080 0.118-0.151 0.191-0.213 0.078-0.068 0.167-0.123 0.263-0.163 0.104-0.043 0.217-0.069 0.335-0.075 0.015-0.001 0.030-0.001 0.044-0.001 0.123 0 0.241 0.021 0.351 0.060l0.030-0.040 0.474-0.859c0.049 0.003 0.089 0.038 0.1 0.084 0.003 0.017 0.005 0.036 0.005 0.056 0 0.031-0.005 0.061-0.013 0.089-0.015 0.055-0.035 0.104-0.059 0.15q-0.035 0.067-0.052 0.099l-0.040 0.073-0.071 0.128-0.085 0.157-0.085 0.157q-0.041 0.075-0.072 0.13c-0.021 0.037-0.034 0.060-0.038 0.071-0.040 0.073-0.064 0.16-0.064 0.252 0 0.001 0 0.002 0 0.003q0 0.134 0 0.255c0.006 0.038 0.023 0.072 0.048 0.098s0.050 0.049 0.078 0.070l0.087 0.065c0.028 0.020 0.051 0.045 0.069 0.073-0.005 0.025-0.027 0.043-0.052 0.043-0 0-0 0-0.001 0-0.029-0-0.056-0.007-0.081-0.018-0.028-0.012-0.053-0.026-0.076-0.043l-0.043-0.030c-0.075-0.054-0.134-0.128-0.169-0.213-0.033-0.082-0.057-0.173-0.070-0.268l-0.036-0.006c-0.136 0.106-0.289 0.206-0.451 0.293-0.113 0.061-0.225 0.102-0.342 0.124zM20.113 21.761q0.009-0.036 0.022-0.115t0.031-0.177 0.036-0.206 0.036-0.206l0.029-0.175q0.013-0.077 0.020-0.116 0.013-0.075 0.024-0.147c0.004-0.022 0.006-0.048 0.006-0.074s-0.002-0.052-0.006-0.077c-0.014-0.001-0.031-0.003-0.048-0.003-0.061 0-0.117 0.025-0.157 0.065-0.083 0.073-0.154 0.157-0.212 0.25-0.072 0.11-0.144 0.235-0.208 0.363q-0.117 0.237-0.216 0.465t-0.192 0.45-0.17 0.392-0.134 0.266q-0.059 0.102-0.094 0.090t-0.039-0.105c0.010-0.090 0.028-0.171 0.055-0.249q0.043-0.138 0.115-0.325t0.159-0.385q0.085-0.198 0.178-0.397t0.174-0.368q0.085-0.17 0.147-0.297l0.094-0.187c0.025 0.010 0.054 0.016 0.084 0.016 0.013 0 0.025-0.001 0.038-0.003 0.035-0.007 0.067-0.021 0.095-0.039 0.031-0.020 0.059-0.042 0.084-0.065 0.029-0.023 0.062-0.045 0.097-0.065 0.053-0.043 0.116-0.069 0.185-0.072 0.045 0.003 0.083 0.029 0.102 0.066 0.024 0.049 0.039 0.106 0.039 0.166 0.001 0.020 0.001 0.045 0.001 0.069 0 0.056-0.003 0.112-0.008 0.167q-0.011 0.116-0.032 0.248t-0.043 0.239q-0.021 0.11-0.036 0.186c-0.007 0.025-0.010 0.054-0.010 0.084 0 0.004 0 0.008 0 0.012 0.005 0.003 0.012 0.005 0.018 0.005 0.010 0 0.019-0.004 0.025-0.010 0.010-0.010 0.020-0.021 0.028-0.033 0.016-0.025 0.030-0.046 0.046-0.066l0.084-0.107 0.098-0.133 0.1-0.133q0.048-0.062 0.085-0.109l0.046-0.064c0.138-0.124 0.289-0.241 0.448-0.345 0.103-0.070 0.207-0.117 0.319-0.144 0.020-0.005 0.036-0.007 0.053-0.007 0.052 0 0.099 0.022 0.132 0.056 0.041 0.055 0.067 0.125 0.067 0.2 0.001 0.017 0.001 0.038 0.001 0.058 0 0.091-0.009 0.18-0.027 0.266q-0.033 0.176-0.094 0.39-0.009 0.030-0.031 0.123t-0.056 0.22-0.067 0.267-0.067 0.267-0.056 0.22-0.031 0.123s0 0.016-0.004 0.043-0.009 0.057-0.017 0.094-0.018 0.074-0.029 0.115c-0.011 0.042-0.026 0.079-0.045 0.113-0.014 0.028-0.036 0.054-0.061 0.074-0.015 0.012-0.034 0.020-0.055 0.020-0.011 0-0.022-0.002-0.032-0.006s-0.007-0.004-0.016-0.013c-0.006-0.006-0.012-0.013-0.017-0.020-0.001-0.003-0.002-0.006-0.002-0.009s0-0.006 0.001-0.009c-0.001-0.003-0.001-0.007-0.001-0.010s0-0.007 0.001-0.011c0.003-0.010 0.007-0.023 0.010-0.036q0.009-0.036 0.020-0.072c0.008-0.024 0.014-0.047 0.020-0.069l0.011-0.043q0.080-0.305 0.14-0.546t0.115-0.471 0.106-0.474 0.116-0.555v-0.071c-0.024-0.007-0.051-0.011-0.080-0.011-0.044 0-0.086 0.010-0.124 0.027-0.081 0.035-0.152 0.081-0.215 0.136-0.079 0.068-0.151 0.14-0.217 0.216q-0.114 0.129-0.217 0.269t-0.214 0.27l-0.18 0.248c-0.050 0.069-0.099 0.13-0.151 0.188-0.026 0.034-0.063 0.063-0.104 0.082-0.010 0.002-0.019 0.003-0.028 0.003-0.016 0-0.032-0.003-0.046-0.008-0.027-0.008-0.042-0.018-0.042-0.029zM4.611 10.735c0.281-0.19 0.571-0.386 0.664-0.589s0.054-0.559 0.013-0.899c-0.058-0.485-0.117-0.986 0.141-1.387s0.742-0.556 1.208-0.705c0.325-0.104 0.66-0.21 0.808-0.38s0.207-0.519 0.264-0.856c0.085-0.482 0.165-0.982 0.526-1.295s0.866-0.325 1.355-0.34c0.34-0.008 0.695-0.017 0.887-0.14s0.34-0.437 0.49-0.744c0.214-0.442 0.436-0.898 0.872-1.098s0.919-0.067 1.389 0.059c0.332 0.085 0.675 0.18 0.895 0.116s0.448-0.321 0.675-0.571c0.332-0.365 0.675-0.742 1.154-0.81 0.466-0.067 0.894 0.195 1.308 0.448 0.295 0.18 0.6 0.366 0.834 0.366s0.539-0.186 0.834-0.366c0.414-0.255 0.842-0.51 1.308-0.448 0.479 0.068 0.822 0.445 1.154 0.81 0.227 0.25 0.463 0.51 0.675 0.571s0.563-0.027 0.895-0.116c0.471-0.126 0.958-0.255 1.389-0.059s0.659 0.657 0.872 1.098c0.148 0.305 0.301 0.622 0.49 0.744s0.545 0.132 0.886 0.14c0.488 0.012 0.994 0.025 1.355 0.34s0.445 0.813 0.526 1.295c0.057 0.34 0.115 0.681 0.264 0.855s0.483 0.277 0.808 0.38c0.467 0.149 0.95 0.303 1.209 0.705s0.198 0.902 0.141 1.387c-0.040 0.34-0.085 0.692 0.013 0.899s0.383 0.399 0.664 0.589c0.34 0.229 0.687 0.465 0.872 0.803h-0.914c-0.105-0.085-0.223-0.161-0.34-0.239-0.357-0.238-0.732-0.493-0.902-0.87s-0.122-0.83-0.070-1.263c0.043-0.365 0.085-0.744-0.037-0.936s-0.491-0.313-0.843-0.425c-0.414-0.132-0.842-0.269-1.115-0.584s-0.348-0.759-0.42-1.191c-0.061-0.364-0.124-0.74-0.301-0.893s-0.556-0.162-0.925-0.17c-0.436-0.011-0.887-0.022-1.238-0.248s-0.545-0.629-0.734-1.021c-0.162-0.334-0.328-0.681-0.543-0.776s-0.576 0-0.931 0.097c-0.425 0.113-0.858 0.23-1.263 0.111s-0.696-0.447-0.987-0.766c-0.25-0.276-0.511-0.561-0.746-0.596s-0.546 0.164-0.858 0.355c-0.375 0.229-0.766 0.465-1.191 0.465s-0.813-0.237-1.191-0.465c-0.311-0.19-0.633-0.386-0.858-0.355s-0.496 0.318-0.746 0.596c-0.291 0.319-0.591 0.65-0.987 0.766s-0.84 0-1.263-0.111c-0.355-0.095-0.722-0.193-0.931-0.097s-0.381 0.443-0.543 0.776c-0.189 0.391-0.385 0.795-0.734 1.021s-0.795 0.238-1.229 0.248c-0.368 0.009-0.75 0.019-0.925 0.17s-0.24 0.529-0.301 0.893c-0.072 0.425-0.147 0.873-0.42 1.191s-0.701 0.451-1.115 0.583c-0.352 0.108-0.718 0.227-0.844 0.425s-0.081 0.573-0.037 0.936c0.051 0.433 0.105 0.881-0.070 1.263s-0.543 0.633-0.901 0.871c-0.117 0.079-0.235 0.158-0.34 0.24h-0.913c0.185-0.339 0.533-0.575 0.872-0.804zM1.814 18.393v-0.332l0.681-0.103v-3.602l-0.896 0.069-0.197 0.561-0.407 0.017 0.069-1.057h3.65l-0.006 1.042-0.332 0.037-0.189-0.602-0.876-0.069v3.598l0.688 0.107v0.332zM31.575 21.266c-0.281 0.19-0.571 0.386-0.664 0.589s-0.054 0.559-0.013 0.899c0.058 0.485 0.117 0.986-0.14 1.387s-0.742 0.556-1.209 0.705c-0.325 0.104-0.66 0.21-0.808 0.38s-0.207 0.519-0.264 0.856c-0.085 0.482-0.165 0.982-0.526 1.295s-0.866 0.325-1.355 0.34c-0.34 0.009-0.695 0.017-0.886 0.14s-0.34 0.437-0.49 0.744c-0.214 0.442-0.436 0.898-0.872 1.098s-0.919 0.067-1.389-0.059c-0.332-0.085-0.675-0.18-0.895-0.116s-0.448 0.321-0.675 0.571c-0.332 0.365-0.675 0.742-1.154 0.81-0.044 0.006-0.095 0.010-0.146 0.010-0.001 0-0.002 0-0.003 0-0.409 0-0.789-0.232-1.159-0.458-0.295-0.18-0.6-0.366-0.834-0.366s-0.539 0.186-0.834 0.366c-0.414 0.255-0.842 0.511-1.308 0.448-0.479-0.068-0.822-0.445-1.154-0.81-0.227-0.25-0.463-0.511-0.675-0.571s-0.563 0.027-0.895 0.116c-0.471 0.126-0.958 0.255-1.389 0.059s-0.659-0.657-0.872-1.098c-0.148-0.306-0.301-0.622-0.49-0.744s-0.545-0.132-0.887-0.14c-0.488-0.012-0.994-0.025-1.355-0.34s-0.445-0.813-0.526-1.295c-0.057-0.34-0.115-0.681-0.264-0.855s-0.485-0.279-0.81-0.383c-0.467-0.149-0.95-0.303-1.209-0.705s-0.198-0.902-0.141-1.387c0.040-0.34 0.085-0.692-0.013-0.899s-0.383-0.399-0.664-0.589c-0.34-0.229-0.687-0.465-0.872-0.803h0.915c0.106 0.085 0.223 0.161 0.34 0.239 0.359 0.242 0.729 0.494 0.902 0.87s0.122 0.83 0.070 1.263c-0.043 0.365-0.085 0.744 0.037 0.936s0.491 0.313 0.843 0.425c0.414 0.132 0.842 0.269 1.115 0.584s0.348 0.759 0.42 1.191c0.061 0.364 0.124 0.74 0.301 0.893s0.556 0.162 0.925 0.17c0.436 0.011 0.887 0.022 1.238 0.248s0.545 0.629 0.734 1.021c0.162 0.334 0.328 0.681 0.543 0.776s0.576 0 0.931-0.097c0.425-0.113 0.858-0.23 1.262-0.111s0.696 0.447 0.987 0.766c0.251 0.276 0.511 0.561 0.746 0.596s0.546-0.164 0.858-0.355c0.375-0.229 0.766-0.465 1.191-0.465s0.813 0.237 1.191 0.465c0.311 0.19 0.633 0.387 0.858 0.355s0.496-0.318 0.746-0.596c0.291-0.319 0.591-0.65 0.987-0.766s0.84 0 1.262 0.111c0.355 0.095 0.721 0.193 0.931 0.097s0.381-0.443 0.543-0.776c0.189-0.391 0.385-0.794 0.734-1.021s0.802-0.237 1.238-0.248c0.368-0.009 0.75-0.019 0.925-0.17s0.24-0.529 0.301-0.893c0.072-0.425 0.147-0.873 0.42-1.191s0.701-0.451 1.115-0.583c0.352-0.112 0.716-0.228 0.844-0.425s0.081-0.573 0.037-0.936c-0.051-0.433-0.105-0.881 0.070-1.263s0.543-0.627 0.902-0.87c0.117-0.079 0.234-0.158 0.34-0.24h0.914c-0.195 0.339-0.543 0.575-0.881 0.804zM35.193 18.393h-1.67v-0.327l0.425-0.074v-2.022l-0.378-0.323v-0.23l0.988-0.306 0.191 0.066v2.82l0.435 0.069z"></path>
<path class="path15" fill="var(--color1, #5c5857)" d="M14.112 18.025c0.179-0.010 0.345-0.061 0.49-0.143 0.153-0.089 0.285-0.209 0.388-0.351 0.118-0.163 0.21-0.349 0.267-0.549 0.065-0.225 0.1-0.468 0.1-0.72 0-0.013-0-0.027-0-0.040 0-0.015 0.001-0.034 0.001-0.054 0-0.282-0.035-0.556-0.102-0.818-0.052-0.205-0.149-0.404-0.279-0.577-0.115-0.15-0.268-0.271-0.445-0.349-0.182-0.077-0.384-0.121-0.597-0.121-0.010 0-0.019 0-0.029 0-0.107 0.001-0.212 0.009-0.315 0.023-0.070 0.010-0.145 0.027-0.216 0.051l0.009 3.558c0.163 0.063 0.351 0.1 0.548 0.1 0.063 0 0.126-0.004 0.188-0.011z"></path>
<path class="path16" fill="var(--color1, #5c5857)" d="M15.386 12.586l2.287-2.257-0.072-0.071-2.215 2.328z"></path>
<path class="path17" fill="var(--color1, #5c5857)" d="M22.207 17.982c0.099-0.074 0.177-0.17 0.228-0.281 0.058-0.128 0.099-0.272 0.117-0.423 0.022-0.158 0.034-0.332 0.034-0.509 0-0.003 0-0.006 0-0.009 0-0.001 0-0.003 0-0.004 0-0.165-0.012-0.327-0.036-0.485-0.019-0.137-0.060-0.277-0.117-0.408-0.047-0.108-0.122-0.207-0.215-0.285-0.092-0.073-0.209-0.117-0.336-0.117-0.004 0-0.007 0-0.011 0-0.009-0.001-0.021-0.001-0.033-0.001-0.123 0-0.238 0.037-0.334 0.099-0.096 0.067-0.176 0.157-0.231 0.261-0.061 0.119-0.105 0.253-0.125 0.393-0.024 0.147-0.037 0.308-0.037 0.473 0 0.004 0 0.009 0 0.013q0 0.148 0.015 0.308c0.012 0.118 0.030 0.225 0.056 0.329 0.023 0.098 0.055 0.194 0.093 0.288 0.033 0.079 0.080 0.159 0.136 0.231 0.050 0.066 0.113 0.123 0.186 0.166 0.071 0.040 0.153 0.063 0.241 0.063 0.003 0 0.006-0 0.009-0 0.009 0.001 0.019 0.001 0.030 0.001 0.124 0 0.238-0.039 0.332-0.105z"></path>
<path class="path18" fill="var(--color1, #5c5857)" d="M6.505 16.854c-0.086 0.021-0.161 0.048-0.232 0.081-0.065 0.030-0.128 0.070-0.184 0.118-0.053 0.046-0.098 0.102-0.13 0.166-0.033 0.067-0.052 0.143-0.052 0.222 0 0.004 0 0.008 0 0.012q0 0.306 0.17 0.434t0.474 0.106c0.083-0.007 0.16-0.031 0.228-0.069s0.128-0.077 0.184-0.122q-0.003-0.253-0.003-0.499t0-0.501q-0.103 0-0.222 0.011c-0.088 0.009-0.168 0.024-0.245 0.043z"></path>
</symbol>
<symbol id="logo" viewBox="0 0 37 32">
<title>logo</title>
<path class="path1" d="M32.77 20.787c-0.114 0.086-0.24 0.173-0.365 0.258-0.384 0.261-0.782 0.53-0.96 0.933s-0.13 0.89-0.075 1.355c0.046 0.392 0.094 0.8-0.040 1.006s-0.526 0.336-0.906 0.456c-0.445 0.142-0.904 0.288-1.197 0.626s-0.373 0.814-0.451 1.28c-0.066 0.39-0.133 0.8-0.32 0.96s-0.597 0.173-0.992 0.184c-0.467 0.011-0.95 0.024-1.328 0.266s-0.584 0.675-0.787 1.093c-0.173 0.358-0.352 0.728-0.582 0.834s-0.618 0-0.998-0.104c-0.453-0.122-0.922-0.246-1.354-0.12s-0.747 0.48-1.059 0.822c-0.269 0.296-0.547 0.602-0.8 0.64s-0.586-0.176-0.92-0.381c-0.403-0.246-0.819-0.499-1.28-0.499s-0.872 0.254-1.28 0.499c-0.334 0.203-0.68 0.414-0.92 0.381s-0.531-0.342-0.8-0.64c-0.312-0.342-0.64-0.698-1.059-0.822s-0.901 0-1.354 0.12c-0.381 0.102-0.774 0.206-0.998 0.104s-0.41-0.48-0.582-0.834c-0.203-0.419-0.413-0.853-0.787-1.093s-0.861-0.254-1.328-0.267c-0.395-0.010-0.8-0.019-0.992-0.184s-0.258-0.568-0.32-0.96c-0.077-0.461-0.16-0.938-0.451-1.28s-0.752-0.48-1.197-0.626c-0.378-0.12-0.77-0.245-0.906-0.456s-0.086-0.614-0.040-1.006c0.054-0.466 0.112-0.946-0.075-1.355s-0.582-0.672-0.96-0.933c-0.125-0.085-0.251-0.17-0.365-0.258h-0.994c0.2 0.363 0.573 0.616 0.936 0.862 0.301 0.203 0.613 0.414 0.712 0.632s0.058 0.6 0.014 0.96c-0.062 0.52-0.125 1.058 0.15 1.488s0.8 0.597 1.298 0.757c0.349 0.11 0.709 0.226 0.867 0.408s0.222 0.557 0.283 0.918c0.086 0.518 0.178 1.053 0.565 1.389s0.93 0.349 1.453 0.362c0.366 0.010 0.746 0.018 0.95 0.15s0.366 0.469 0.526 0.8c0.23 0.48 0.467 0.96 0.936 1.179s0.986 0.072 1.491-0.062c0.355-0.094 0.723-0.194 0.96-0.125s0.48 0.344 0.723 0.613c0.355 0.392 0.723 0.8 1.238 0.869s0.96-0.21 1.403-0.48c0.32-0.194 0.64-0.394 0.894-0.394s0.578 0.2 0.894 0.394c0.397 0.242 0.8 0.491 1.243 0.491 0.001 0 0.001 0 0.002 0 0.056 0 0.111-0.004 0.164-0.012 0.508-0.073 0.876-0.479 1.232-0.868 0.243-0.269 0.496-0.546 0.723-0.613s0.605 0.029 0.96 0.125c0.506 0.134 1.027 0.275 1.491 0.062s0.706-0.704 0.936-1.179c0.16-0.328 0.32-0.667 0.526-0.8s0.584-0.141 0.95-0.15c0.525-0.013 1.067-0.026 1.453-0.362s0.48-0.872 0.565-1.389c0.061-0.362 0.123-0.734 0.283-0.918s0.518-0.298 0.867-0.408c0.501-0.16 1.019-0.32 1.298-0.757s0.213-0.96 0.15-1.488c-0.043-0.365-0.088-0.742 0.014-0.96s0.411-0.427 0.712-0.632c0.363-0.246 0.736-0.499 0.936-0.862z"></path>
<path class="path2" d="M3.926 11.213c0.114-0.086 0.24-0.173 0.365-0.258 0.386-0.261 0.782-0.53 0.96-0.933s0.13-0.89 0.075-1.355c-0.046-0.392-0.094-0.8 0.040-1.006s0.526-0.336 0.906-0.456c0.445-0.142 0.904-0.288 1.197-0.626s0.373-0.814 0.451-1.28c0.066-0.39 0.133-0.8 0.32-0.96s0.597-0.173 0.992-0.184c0.467-0.011 0.95-0.024 1.328-0.266s0.584-0.675 0.787-1.093c0.173-0.358 0.352-0.728 0.582-0.834s0.618 0 0.998 0.104c0.453 0.122 0.922 0.246 1.354 0.12s0.758-0.472 1.078-0.816c0.269-0.296 0.547-0.602 0.8-0.64s0.586 0.176 0.92 0.381c0.403 0.246 0.819 0.499 1.28 0.499s0.872-0.254 1.28-0.499c0.334-0.203 0.68-0.414 0.92-0.381s0.531 0.342 0.8 0.64c0.312 0.342 0.64 0.698 1.059 0.822s0.901 0 1.355-0.12c0.381-0.102 0.774-0.206 0.998-0.104s0.41 0.48 0.582 0.834c0.203 0.419 0.413 0.853 0.787 1.093s0.861 0.254 1.328 0.266c0.395 0.010 0.8 0.019 0.994 0.184s0.258 0.568 0.32 0.96c0.077 0.461 0.16 0.938 0.451 1.28s0.752 0.48 1.197 0.626c0.378 0.12 0.77 0.245 0.906 0.456s0.086 0.614 0.040 1.006c-0.054 0.466-0.112 0.946 0.075 1.355s0.582 0.672 0.96 0.933c0.125 0.085 0.251 0.17 0.365 0.258h0.981c-0.2-0.363-0.573-0.616-0.936-0.862-0.301-0.203-0.613-0.414-0.712-0.632s-0.058-0.6-0.014-0.96c0.062-0.52 0.125-1.058-0.15-1.488s-0.8-0.597-1.298-0.757c-0.349-0.11-0.709-0.226-0.867-0.408s-0.222-0.557-0.283-0.918c-0.086-0.518-0.178-1.053-0.565-1.389s-0.93-0.349-1.453-0.362c-0.366-0.010-0.746-0.018-0.95-0.15s-0.366-0.469-0.526-0.8c-0.23-0.48-0.467-0.96-0.936-1.179s-0.986-0.072-1.491 0.062c-0.355 0.096-0.723 0.194-0.96 0.125s-0.48-0.344-0.723-0.613c-0.355-0.392-0.723-0.8-1.238-0.869s-0.96 0.21-1.403 0.48c-0.32 0.194-0.64 0.394-0.894 0.394s-0.578-0.2-0.894-0.394c-0.445-0.27-0.904-0.552-1.403-0.48s-0.882 0.48-1.238 0.869c-0.243 0.269-0.496 0.546-0.723 0.613s-0.605-0.029-0.96-0.125c-0.506-0.134-1.027-0.275-1.491-0.062s-0.706 0.704-0.936 1.179c-0.16 0.328-0.32 0.667-0.526 0.8s-0.584 0.141-0.95 0.15c-0.525 0.013-1.067 0.026-1.453 0.362s-0.48 0.872-0.565 1.389c-0.061 0.362-0.123 0.734-0.283 0.918s-0.533 0.288-0.875 0.398c-0.501 0.16-1.019 0.32-1.298 0.757s-0.213 0.96-0.15 1.488c0.043 0.365 0.088 0.742-0.014 0.96s-0.411 0.427-0.712 0.632c-0.363 0.246-0.736 0.499-0.936 0.862z"></path>
<path class="path3" d="M8.586 7.941l-0.634 0.688 0.198 0.182 0.166-0.117 1.683 0.779 0.315-0.342-0.632-0.995-0.203-0.282 0.302 0.174 1.062 0.528 0.33-0.358-0.95-1.562 0.126-0.216-0.197-0.181-0.568 0.616 0.198 0.182 0.194-0.139 0.578 0.853 0.182 0.266-0.29-0.158-1.195-0.642-0.299 0.323 0.73 1.147 0.186 0.251-0.301-0.171-0.893-0.458 0.109-0.187-0.198-0.182z"></path>
<path class="path4" d="M11.424 7.123c0.094 0.085 0.206 0.151 0.329 0.193 0.082 0.027 0.169 0.041 0.259 0.041 0.050 0 0.098-0.004 0.146-0.013 0.162-0.031 0.31-0.094 0.439-0.184 0.113-0.074 0.21-0.168 0.288-0.277 0.077-0.106 0.132-0.227 0.161-0.359 0.015-0.069 0.022-0.141 0.022-0.214s-0.008-0.145-0.023-0.215c-0.035-0.163-0.1-0.312-0.189-0.444-0.079-0.123-0.176-0.232-0.287-0.323-0.098-0.080-0.212-0.14-0.337-0.173-0.063-0.015-0.127-0.023-0.194-0.023s-0.131 0.008-0.193 0.023c-0.145 0.034-0.277 0.095-0.393 0.176-0.109 0.074-0.205 0.164-0.285 0.267-0.129 0.164-0.205 0.37-0.205 0.593 0 0.059 0.005 0.116 0.015 0.172 0.029 0.161 0.091 0.31 0.178 0.44 0.074 0.12 0.164 0.227 0.266 0.319zM11.41 5.715c0.034-0.076 0.089-0.137 0.158-0.178 0.056-0.038 0.123-0.060 0.196-0.060 0.011 0 0.022 0.001 0.033 0.002 0.082 0.010 0.158 0.039 0.223 0.083 0.077 0.052 0.146 0.112 0.205 0.18 0.065 0.073 0.126 0.152 0.18 0.235 0.058 0.089 0.111 0.183 0.158 0.281 0.045 0.092 0.075 0.182 0.090 0.276 0.006 0.032 0.009 0.063 0.009 0.094 0 0.051-0.008 0.101-0.024 0.147-0.032 0.074-0.087 0.136-0.157 0.177-0.047 0.031-0.102 0.051-0.161 0.054-0.008 0-0.016 0.001-0.025 0.001-0.049 0-0.095-0.008-0.139-0.024-0.058-0.021-0.111-0.048-0.159-0.082-0.058-0.038-0.11-0.078-0.159-0.123-0.048-0.045-0.093-0.095-0.134-0.147q-0.066-0.083-0.119-0.163c-0.051-0.076-0.1-0.165-0.142-0.257-0.041-0.087-0.066-0.173-0.077-0.264-0.001-0.012-0.001-0.021-0.001-0.030 0-0.073 0.016-0.142 0.045-0.204z"></path>
<path class="path5" d="M13.72 6.131c0.109 0.063 0.239 0.103 0.377 0.109 0.010 0 0.020 0 0.031 0 0.156 0 0.304-0.031 0.439-0.088 0.126-0.049 0.241-0.12 0.339-0.209 0.097-0.087 0.175-0.194 0.23-0.313 0.057-0.125 0.089-0.265 0.090-0.412 0-0.003 0-0.007 0-0.010 0-0.169-0.033-0.331-0.093-0.479-0.051-0.138-0.124-0.266-0.215-0.378-0.078-0.097-0.178-0.177-0.29-0.235-0.11-0.055-0.234-0.086-0.365-0.086-0.002 0-0.004 0-0.007 0-0.152 0.002-0.297 0.034-0.43 0.089-0.124 0.051-0.238 0.121-0.338 0.207-0.2 0.169-0.33 0.418-0.341 0.698-0.001 0.014-0.001 0.028-0.001 0.042 0 0.154 0.030 0.301 0.084 0.436s0.124 0.259 0.211 0.37c0.073 0.103 0.166 0.19 0.274 0.257zM13.635 4.704c0.009-0.081 0.037-0.155 0.079-0.218 0.047-0.064 0.115-0.114 0.193-0.14 0.041-0.017 0.086-0.026 0.133-0.026 0.037 0 0.072 0.006 0.106 0.016 0.076 0.027 0.143 0.070 0.197 0.126 0.061 0.065 0.115 0.138 0.157 0.217 0.048 0.082 0.092 0.173 0.129 0.267 0.040 0.101 0.073 0.208 0.099 0.317 0.021 0.086 0.032 0.166 0.032 0.248 0 0.017-0 0.034-0.001 0.051-0.004 0.081-0.030 0.158-0.071 0.224-0.045 0.065-0.111 0.116-0.188 0.141-0.037 0.015-0.077 0.023-0.12 0.023-0.015 0-0.030-0.001-0.045-0.003-0.058-0.008-0.112-0.028-0.16-0.057-0.051-0.032-0.097-0.069-0.137-0.112-0.044-0.048-0.084-0.1-0.121-0.156-0.038-0.055-0.073-0.112-0.103-0.173q-0.050-0.101-0.084-0.189c-0.033-0.082-0.063-0.18-0.086-0.281-0.012-0.060-0.017-0.114-0.017-0.168 0-0.037 0.002-0.074 0.007-0.109z"></path>
<path class="path6" d="M16.629 3.418l-0.128 0.014c-0.16 0.023-0.303 0.076-0.431 0.152-0.121 0.072-0.227 0.167-0.313 0.278-0.086 0.112-0.15 0.242-0.187 0.382-0.024 0.091-0.037 0.188-0.037 0.287 0 0.064 0.005 0.126 0.015 0.187 0.021 0.163 0.072 0.316 0.148 0.455 0.060 0.107 0.141 0.203 0.238 0.281 0.085 0.068 0.184 0.118 0.293 0.144 0.062 0.015 0.127 0.024 0.194 0.024 0.041 0 0.080-0.003 0.119-0.009 0.074-0.011 0.143-0.027 0.21-0.048 0.054-0.017 0.107-0.038 0.158-0.061 0.037-0.017 0.075-0.040 0.111-0.067 0.028-0.021 0.054-0.043 0.078-0.068 0.017 0.053 0.057 0.095 0.108 0.113 0.034 0.010 0.071 0.015 0.109 0.015 0.026 0 0.052-0.003 0.077-0.007 0.105-0.015 0.201-0.041 0.293-0.076 0.059-0.022 0.119-0.054 0.173-0.091l-0.028-0.166-0.253 0.038-0.41-2.701-0.11-0.030-0.8 0.206 0.032 0.213 0.408 0.027 0.077 0.506c-0.015-0.001-0.032-0.001-0.049-0.001-0.033 0-0.067 0.002-0.099 0.005zM16.822 3.712l0.221 1.461c-0.027 0.024-0.058 0.044-0.092 0.060-0.045 0.021-0.094 0.038-0.146 0.048-0.051 0.015-0.104 0.023-0.16 0.023-0.002 0-0.003 0-0.005-0-0.069-0.002-0.134-0.021-0.191-0.052-0.066-0.036-0.124-0.085-0.17-0.143-0.056-0.071-0.103-0.151-0.136-0.238-0.042-0.108-0.071-0.226-0.086-0.348-0.010-0.064-0.015-0.129-0.015-0.196 0-0.032 0.001-0.064 0.004-0.095 0.006-0.075 0.021-0.147 0.045-0.217 0.017-0.055 0.045-0.108 0.079-0.155 0.029-0.039 0.064-0.074 0.102-0.105 0.033-0.026 0.069-0.048 0.109-0.064 0.061-0.024 0.129-0.038 0.2-0.038 0.088 0 0.171 0.021 0.244 0.058z"></path>
<path class="path7" d="M19.917 4.336c0.009-0.060 0.015-0.13 0.016-0.201 0-0.008 0-0.017 0-0.026 0-0.105-0.015-0.207-0.044-0.302-0.053-0.182-0.189-0.333-0.365-0.407-0.104-0.043-0.22-0.069-0.342-0.072-0.023-0.001-0.048-0.002-0.073-0.002-0.136 0-0.267 0.024-0.387 0.069-0.129 0.048-0.246 0.122-0.345 0.216s-0.177 0.207-0.232 0.334c-0.058 0.134-0.094 0.282-0.102 0.437-0.002 0.031-0.003 0.063-0.003 0.095 0 0.122 0.016 0.241 0.047 0.354 0.033 0.12 0.093 0.233 0.173 0.328 0.080 0.093 0.18 0.169 0.293 0.22 0.127 0.058 0.269 0.093 0.419 0.1 0.039 0.003 0.081 0.005 0.124 0.005s0.085-0.002 0.127-0.005c0.082-0.007 0.162-0.019 0.239-0.037 0.069-0.016 0.139-0.038 0.205-0.067 0.053-0.022 0.105-0.052 0.154-0.088l-0.075-0.202c-0.036 0.016-0.080 0.032-0.125 0.043s-0.094 0.022-0.144 0.029q-0.083 0.012-0.159 0.015t-0.144 0c-0.086-0.004-0.167-0.023-0.242-0.053-0.070-0.029-0.134-0.074-0.185-0.131-0.056-0.062-0.099-0.137-0.126-0.218-0.031-0.096-0.048-0.202-0.048-0.311 0-0.005 0-0.009 0-0.013 0-0.001 0-0.002 0-0.003s-0-0.003-0-0.004c-0-0.001-0-0.003-0-0.005s0-0.003 0-0.005l1.314 0.072q0.016-0.078 0.030-0.165zM19.424 4.043q0 0.085-0.016 0.16l-0.813-0.043c0.012-0.092 0.032-0.176 0.060-0.255 0.023-0.066 0.058-0.131 0.101-0.19 0.037-0.051 0.086-0.094 0.142-0.125 0.050-0.027 0.108-0.042 0.169-0.042 0.009 0 0.018 0 0.027 0.001 0.041 0.002 0.081 0.009 0.119 0.022 0.031 0.010 0.060 0.025 0.086 0.045 0.038 0.029 0.068 0.067 0.086 0.111s0.032 0.095 0.037 0.147c0.003 0.030 0.005 0.062 0.005 0.095 0 0.026-0.001 0.052-0.003 0.078z"></path>
<path class="path8" d="M20.16 5.298l-0.056 0.202 0.973 0.261 0.056-0.202-0.226-0.11 0.363-1.312c0.030-0.011 0.066-0.021 0.104-0.027 0.036-0.006 0.074-0.010 0.112-0.012 0.017-0.001 0.034-0.002 0.052-0.002s0.035 0.001 0.053 0.002c0.029 0.003 0.057 0.007 0.084 0.014 0.067 0.016 0.13 0.043 0.186 0.080 0.040 0.028 0.072 0.071 0.089 0.12 0.010 0.036 0.016 0.075 0.016 0.115 0 0.025-0.002 0.049-0.006 0.073-0.015 0.098-0.034 0.186-0.059 0.271l-0.244 0.88-0.27-0.026-0.056 0.202 1.024 0.283 0.046-0.19-0.251-0.115 0.269-0.971c0.032-0.105 0.056-0.229 0.070-0.356 0.004-0.032 0.005-0.060 0.005-0.088 0-0.072-0.011-0.142-0.031-0.208-0.026-0.076-0.074-0.145-0.137-0.196-0.076-0.058-0.165-0.102-0.262-0.124-0.065-0.017-0.135-0.028-0.207-0.031-0.034-0.003-0.072-0.004-0.109-0.004s-0.075 0.002-0.112 0.005c-0.073 0.009-0.144 0.023-0.212 0.044-0.062 0.018-0.122 0.043-0.179 0.072l0.076-0.259-0.099-0.066-0.622 0.013-0.048 0.173 0.203 0.224-0.355 1.28z"></path>
<path class="path9" d="M25.050 6.141l-0.038 0.059c-0.048-0.031-0.107-0.065-0.167-0.095-0.071-0.037-0.144-0.070-0.22-0.099-0.083-0.032-0.165-0.058-0.25-0.078-0.088-0.021-0.175-0.032-0.264-0.033-0.003-0-0.005-0-0.008-0-0.080 0-0.156 0.013-0.228 0.037-0.070 0.023-0.133 0.065-0.183 0.12-0.061 0.064-0.11 0.139-0.143 0.223-0.022 0.058-0.034 0.12-0.034 0.184 0 0.026 0.002 0.051 0.006 0.076 0.015 0.094 0.052 0.181 0.105 0.255 0.067 0.092 0.151 0.17 0.248 0.23 0.094 0.065 0.203 0.109 0.319 0.128 0.047 0.008 0.095 0.013 0.144 0.013s0.098-0.004 0.145-0.013l-0.015 0.015c-0.021 0.029-0.034 0.065-0.034 0.105 0 0.002 0 0.004 0 0.006 0.002 0.034 0.013 0.066 0.029 0.093s0.038 0.052 0.061 0.072c0.020 0.017 0.041 0.034 0.064 0.048q0.046 0.029 0.095 0.056c0.027 0.015 0.061 0.031 0.096 0.046s0.071 0.026 0.107 0.035c0.035 0.009 0.070 0.013 0.106 0.014l0.088-0.138-0.198-0.128 0.64-0.986c0.066-0.094 0.115-0.204 0.14-0.324 0.007-0.035 0.010-0.069 0.010-0.103 0-0.064-0.011-0.125-0.031-0.181-0.033-0.087-0.083-0.164-0.148-0.228-0.073-0.073-0.153-0.138-0.239-0.193-0.074-0.048-0.152-0.092-0.234-0.13-0.074-0.034-0.151-0.064-0.231-0.089-0.071-0.022-0.14-0.038-0.211-0.049-0.032-0.004-0.059-0.006-0.088-0.006s-0.056 0.002-0.083 0.006l-0.040 0.249 0.11 0.014c0.055 0.010 0.103 0.021 0.149 0.036 0.058 0.017 0.111 0.036 0.162 0.058s0.104 0.049 0.153 0.082c0.049 0.032 0.095 0.069 0.137 0.111 0.036 0.036 0.064 0.082 0.078 0.132 0.007 0.028 0.011 0.057 0.011 0.087s-0.004 0.059-0.011 0.087c-0.026 0.074-0.062 0.14-0.106 0.2zM24.706 6.67l-0.174 0.269c-0.021 0.002-0.046 0.003-0.071 0.003s-0.050-0.001-0.074-0.003-0.099-0.019-0.143-0.042c-0.097-0.045-0.175-0.123-0.218-0.22-0.008-0.028-0.012-0.057-0.012-0.086 0-0.079 0.028-0.151 0.074-0.208 0.027-0.043 0.063-0.080 0.105-0.106 0.038-0.019 0.081-0.032 0.126-0.036 0.023-0.003 0.048-0.005 0.073-0.005s0.050 0.002 0.075 0.005c0.053 0.008 0.103 0.021 0.15 0.038 0.050 0.018 0.096 0.038 0.141 0.062q0.061 0.032 0.117 0.068z"></path>
<path class="path10" d="M25.19 7.621l-0.142 0.16 0.915 0.848 0.142-0.16-0.306-0.358 0.891-0.96 0.061 0.014c0.031 0.009 0.057 0.019 0.081 0.032 0.033 0.016 0.063 0.033 0.092 0.053 0.037 0.026 0.071 0.053 0.104 0.084 0.043 0.040 0.082 0.085 0.115 0.134 0.030 0.042 0.052 0.087 0.067 0.136l0.335-0.357c-0.013-0.023-0.028-0.043-0.045-0.061q-0.035-0.038-0.082-0.082c-0.038-0.034-0.083-0.063-0.131-0.085-0.053-0.025-0.112-0.046-0.173-0.059-0.056-0.012-0.114-0.019-0.173-0.019-0.008 0-0.015 0-0.023 0-0.057 0.001-0.112 0.015-0.161 0.039l0.225-0.241-0.058-0.102-0.558-0.275-0.122 0.131 0.077 0.291-0.904 0.976z"></path>
<path class="path11" d="M26.608 8.907c-0.044 0.051-0.077 0.112-0.097 0.179-0.009 0.031-0.014 0.063-0.014 0.096s0.005 0.065 0.014 0.095c0.026 0.074 0.064 0.14 0.112 0.197 0.042 0.052 0.086 0.099 0.134 0.142s0.101 0.083 0.156 0.119c0.051 0.035 0.104 0.064 0.159 0.087 0.046 0.022 0.093 0.035 0.142 0.041l0.101-0.179c-0.024-0.010-0.044-0.021-0.063-0.034-0.027-0.018-0.051-0.036-0.074-0.055q-0.037-0.029-0.072-0.066c-0.022-0.021-0.042-0.043-0.061-0.066-0.026-0.029-0.044-0.064-0.052-0.102-0.001-0.005-0.001-0.010-0.001-0.014 0-0.038 0.013-0.073 0.036-0.101 0.043-0.060 0.092-0.113 0.146-0.159q0.105-0.094 0.286-0.239l0.61-0.48 0.378 0.48 0.224-0.179-0.387-0.48 0.382-0.306-0.16-0.198-0.131 0.051-0.13 0.043q-0.062 0.019-0.117 0.030c-0.027 0.006-0.058 0.011-0.089 0.011-0.006 0-0.013 0.001-0.019 0.001-0.022 0-0.044-0.003-0.065-0.009-0.027-0.008-0.051-0.019-0.074-0.032-0.028-0.016-0.054-0.034-0.078-0.053l-0.088-0.071-0.139 0.11 0.174 0.218-0.938 0.749c-0.077 0.053-0.144 0.11-0.204 0.174z"></path>
<path class="path12" d="M10.184 21.522l-0.134 0.278q-0.072 0.152-0.136 0.299t-0.112 0.275c-0.024 0.058-0.044 0.127-0.055 0.198 0.005 0.010 0.013 0.013 0.022 0.013s0.016-0.003 0.023-0.008 0.027-0.016 0.038-0.027c0.094-0.262 0.196-0.483 0.313-0.694 0.124-0.224 0.253-0.429 0.39-0.627 0.017-0.024 0.057-0.064 0.103-0.096l0.171-0.124c0.056-0.040 0.105-0.082 0.151-0.127 0.036-0.030 0.060-0.073 0.065-0.122-0.009-0.040-0.030-0.073-0.060-0.095l0.024-0.044 0.077-0.128c0.009-0.016 0.018-0.030 0.028-0.042l0.030-0.038 0.053-0.064 0.053-0.066 0.030-0.040c0.009-0.020 0.014-0.044 0.014-0.068 0-0 0-0 0-0 0.002-0.014 0.003-0.029 0.003-0.046s-0.001-0.032-0.003-0.047c-0.001-0.021-0.012-0.041-0.028-0.054q-0.023-0.015-0.066 0.037l-0.32 0.437c-0.085 0.121-0.183 0.225-0.293 0.315-0.105 0.081-0.226 0.142-0.357 0.177-0.124 0.029-0.258 0.045-0.396 0.045-0.048 0-0.096-0.002-0.144-0.006l-0.143 0h-0.171q-0.086 0-0.16-0.014c-0.053-0.006-0.1-0.017-0.146-0.032 0.010-0.048 0.024-0.093 0.048-0.133 0.034-0.066 0.069-0.123 0.108-0.178q0.062-0.090 0.139-0.194l0.15-0.203q0.074-0.099 0.131-0.189c0.031-0.046 0.059-0.099 0.081-0.154 0.008-0.020 0.012-0.037 0.012-0.055s-0.004-0.035-0.010-0.050q-0.017-0.033-0.097-0.026l-0.094 0.133-0.13 0.186-0.147 0.213-0.147 0.211-0.13 0.179q-0.059 0.085-0.094 0.131l-0.102 0.149q-0.070 0.102-0.16 0.232t-0.173 0.272q-0.088 0.142-0.16 0.277c-0.036 0.068-0.069 0.149-0.096 0.232-0.015 0.040-0.022 0.074-0.022 0.11 0 0.025 0.003 0.049 0.009 0.071 0.003 0.007 0.008 0.015 0.014 0.022 0.006 0.008 0.012 0.016 0.019 0.022 0.070-0.066 0.13-0.141 0.178-0.224q0.081-0.139 0.163-0.286l0.144-0.294c0.050-0.1 0.103-0.186 0.163-0.267l0.2-0.010 0.264-0.013q0.142 0 0.291 0t0.286 0 0.251 0.022c0.068 0.008 0.129 0.024 0.187 0.047-0.015 0.034-0.028 0.066-0.044 0.095z"></path>
<path class="path13" d="M10.978 22.813c0.031 0.007 0.066 0.011 0.102 0.011s0.072-0.004 0.106-0.012c0.075-0.016 0.145-0.043 0.209-0.078 0.074-0.040 0.139-0.080 0.201-0.124q0.088-0.061 0.171-0.13t0.141-0.109c0.023 0.021 0.041 0.048 0.051 0.079 0.012 0.036 0.027 0.066 0.047 0.093 0.042 0.069 0.106 0.122 0.183 0.149 0.072 0.025 0.151 0.040 0.234 0.040 0.010 0 0.019-0 0.029-0.001 0.105-0.004 0.206-0.020 0.302-0.049 0.107-0.030 0.204-0.064 0.298-0.104 0.082-0.035 0.163-0.078 0.241-0.125 0.056-0.033 0.111-0.074 0.162-0.121q0.059-0.057 0.050-0.091t-0.107-0.027q-0.192 0.101-0.336 0.16t-0.31 0.126c-0.089 0.035-0.194 0.063-0.303 0.079-0.033 0.005-0.062 0.008-0.091 0.008-0.057 0-0.111-0.010-0.162-0.027-0.055-0.024-0.094-0.080-0.094-0.146 0-0.008 0.001-0.017 0.002-0.025 0-0.072 0.014-0.141 0.038-0.205 0.026-0.071 0.055-0.133 0.087-0.193q0.046-0.083 0.097-0.173c0.030-0.051 0.057-0.11 0.078-0.172 0.019-0.057 0.029-0.115 0.029-0.175 0-0.004-0-0.008-0-0.012-0.003-0.069-0.025-0.132-0.060-0.186-0.046-0.088-0.125-0.156-0.22-0.188-0.045-0.014-0.093-0.021-0.144-0.021s-0.099 0.007-0.144 0.021c-0.114 0.038-0.217 0.092-0.308 0.161-0.11 0.079-0.209 0.166-0.299 0.261-0.093 0.097-0.178 0.202-0.255 0.313-0.072 0.105-0.135 0.214-0.186 0.33-0.045 0.1-0.073 0.201-0.083 0.307-0.002 0.015-0.003 0.027-0.003 0.040 0 0.069 0.025 0.132 0.067 0.18 0.043 0.063 0.105 0.11 0.178 0.135zM10.91 22.323c0.064-0.13 0.132-0.241 0.21-0.345 0.091-0.123 0.186-0.236 0.288-0.343 0.096-0.102 0.201-0.196 0.313-0.281 0.089-0.070 0.185-0.124 0.289-0.162 0.030-0.013 0.057-0.020 0.086-0.020 0.050 0 0.095 0.019 0.128 0.051-0 0.16-0.035 0.313-0.097 0.45-0.064 0.151-0.145 0.287-0.242 0.41-0.094 0.12-0.199 0.23-0.314 0.328-0.099 0.086-0.206 0.161-0.322 0.222-0.085 0.048-0.175 0.075-0.271 0.076-0 0-0 0-0 0-0.067 0-0.121-0.053-0.123-0.12-0.001-0.011-0.001-0.024-0.001-0.037 0-0.085 0.022-0.164 0.060-0.233z"></path>
<path class="path14" d="M13.253 22.898c0.061-0.019 0.114-0.046 0.161-0.082 0.083-0.058 0.155-0.114 0.225-0.173l0.257-0.218q0.138-0.117 0.28-0.229c0.080-0.063 0.169-0.127 0.263-0.186 0.084-0.053 0.166-0.093 0.253-0.122 0.037-0.014 0.072-0.021 0.108-0.021s0.070 0.007 0.102 0.019c0.006 0.030 0.010 0.065 0.010 0.101s-0.004 0.071-0.013 0.105c-0.020 0.075-0.045 0.142-0.077 0.206-0.038 0.076-0.077 0.144-0.119 0.209q-0.060 0.095-0.12 0.201c-0.035 0.061-0.068 0.131-0.095 0.205-0.027 0.075-0.041 0.151-0.041 0.231 0 0.001 0 0.003 0 0.004 0.009 0.013 0.018 0.025 0.029 0.035q0.026 0.029 0.048 0.010c0.017-0.016 0.031-0.035 0.040-0.057 0.011-0.024 0.020-0.051 0.027-0.079l0.020-0.082q0.008-0.035 0.013-0.050l0.059-0.112 0.205-0.381 0.059-0.112c0.056-0.097 0.104-0.208 0.135-0.326 0.010-0.033 0.014-0.059 0.014-0.087 0-0.039-0.009-0.075-0.024-0.108-0.026-0.036-0.069-0.061-0.118-0.061-0.003 0-0.005 0-0.008 0s-0.008-0-0.012-0c-0.068 0-0.134 0.010-0.196 0.029-0.092 0.026-0.174 0.056-0.252 0.093q-0.122 0.055-0.244 0.117t-0.226 0.123l-0.16 0.093c-0.002-0.011-0.003-0.023-0.003-0.036 0-0.033 0.008-0.063 0.023-0.090q0.030-0.060 0.057-0.117c0.016-0.034 0.026-0.074 0.029-0.116-0.002-0.048-0.028-0.089-0.065-0.113-0.029 0.026-0.054 0.056-0.073 0.089q-0.060 0.088-0.14 0.211l-0.17 0.267q-0.090 0.142-0.16 0.266l-0.125 0.205c-0.018 0.024-0.033 0.052-0.045 0.082 0.001 0.034 0.027 0.058 0.058 0.058 0.004 0 0.008-0 0.012-0.001z"></path>
<path class="path15" d="M16.354 22.702h0.038c0.015 0.108 0.041 0.206 0.078 0.298 0.036 0.087 0.099 0.165 0.178 0.222l0.050 0.035c0.023 0.016 0.050 0.031 0.079 0.044s0.058 0.020 0.089 0.020c0.001 0 0.001 0 0.002 0 0.027 0 0.050-0.019 0.056-0.044-0.020-0.032-0.045-0.059-0.074-0.080l-0.092-0.069c-0.031-0.024-0.059-0.049-0.084-0.076-0.027-0.029-0.045-0.065-0.051-0.105q-0-0.134-0-0.278c0-0.099 0.026-0.192 0.070-0.273q-0.001-0.015 0.040-0.074l0.077-0.139 0.186-0.336 0.075-0.138 0.043-0.078 0.059-0.11c0.024-0.046 0.046-0.099 0.061-0.154 0.011-0.034 0.016-0.067 0.016-0.101 0-0.023-0.002-0.045-0.007-0.067-0.015-0.045-0.059-0.078-0.111-0.078-0.004 0-0.007 0-0.011 0.001l-0.508 0.922-0.040 0.040c-0.109-0.039-0.235-0.062-0.367-0.062-0.016 0-0.032 0-0.048 0.001-0.127 0.006-0.248 0.034-0.36 0.079-0.103 0.043-0.198 0.102-0.282 0.174-0.078 0.067-0.147 0.144-0.204 0.228-0.051 0.075-0.092 0.158-0.119 0.245-0.017 0.049-0.025 0.099-0.025 0.15 0 0.026 0.002 0.051 0.006 0.075 0.011 0.059 0.046 0.11 0.095 0.142 0.045 0.025 0.098 0.040 0.154 0.040 0.024 0 0.047-0.003 0.069-0.008 0.131-0.025 0.251-0.069 0.359-0.129 0.189-0.098 0.356-0.204 0.513-0.323zM15.464 23.054q-0.093 0.021-0.104-0.038c-0.012-0.040-0.019-0.085-0.019-0.133s0.007-0.093 0.020-0.136c0.027-0.088 0.069-0.166 0.125-0.235 0.058-0.072 0.128-0.134 0.205-0.184s0.162-0.092 0.252-0.122c0.078-0.026 0.159-0.039 0.244-0.039 0.010 0 0.019 0 0.029 0.001 0.086 0.003 0.168 0.028 0.238 0.070q0.020 0.045-0.049 0.136c-0.057 0.073-0.118 0.137-0.184 0.195-0.080 0.073-0.166 0.142-0.255 0.206-0.088 0.064-0.178 0.123-0.271 0.178-0.076 0.047-0.148 0.079-0.224 0.101z"></path>
<path class="path16" d="M20.576 22.448c0.012 0.003 0.025 0.005 0.038 0.005s0.027-0.002 0.039-0.006c0.045-0.021 0.084-0.052 0.114-0.090 0.054-0.060 0.107-0.125 0.156-0.192l0.198-0.273q0.104-0.146 0.216-0.296t0.23-0.285c0.074-0.085 0.151-0.162 0.234-0.233 0.069-0.061 0.146-0.11 0.229-0.146 0.045-0.020 0.090-0.031 0.139-0.031 0.030 0 0.059 0.004 0.087 0.012l-0.002 0.076q-0.069 0.334-0.125 0.595t-0.114 0.509q-0.059 0.246-0.123 0.506t-0.15 0.586l-0.011 0.046c0 0.024-0.013 0.048-0.021 0.074s-0.014 0.051-0.021 0.074c-0.004 0.017-0.009 0.031-0.014 0.045 0 0-0 0.004-0 0.008s0 0.008 0.001 0.012c-0.001 0.003-0.002 0.006-0.002 0.009s0.001 0.007 0.002 0.010l0.019 0.022c0.010 0.010 0.016 0.014 0.018 0.014 0.009 0.003 0.020 0.005 0.031 0.005 0.022 0 0.042-0.007 0.057-0.020 0.027-0.022 0.050-0.050 0.066-0.082 0.019-0.035 0.035-0.075 0.046-0.116q0.019-0.070 0.031-0.127t0.018-0.101c0-0.027 0-0.043 0-0.045s0.018-0.066 0.034-0.133 0.037-0.146 0.061-0.235 0.048-0.186 0.072-0.286 0.048-0.197 0.072-0.286 0.043-0.17 0.061-0.235 0.029-0.11 0.034-0.133q0.066-0.229 0.102-0.427c0.017-0.082 0.027-0.177 0.027-0.273 0-0.023-0.001-0.046-0.002-0.069-0-0.078-0.027-0.152-0.073-0.212-0.035-0.037-0.086-0.060-0.142-0.060-0.018 0-0.035 0.002-0.051 0.007-0.126 0.029-0.238 0.079-0.336 0.147-0.183 0.119-0.345 0.244-0.496 0.38l-0.046 0.066-0.086 0.117-0.107 0.142-0.106 0.142-0.086 0.117c-0.016 0.020-0.032 0.042-0.046 0.066-0.012 0.017-0.022 0.029-0.034 0.040-0.006 0.005-0.015 0.008-0.023 0.008s-0.017-0.003-0.023-0.008c0-0.003-0-0.007-0-0.011 0-0.032 0.004-0.064 0.012-0.094l0.038-0.197q0.022-0.117 0.046-0.256t0.035-0.272c0.003-0.037 0.004-0.080 0.004-0.123s-0.001-0.086-0.004-0.129c0-0.059-0.015-0.12-0.042-0.174-0.020-0.038-0.060-0.066-0.107-0.070-0.075 0.003-0.143 0.031-0.196 0.076-0.038 0.025-0.071 0.051-0.103 0.079-0.027 0.024-0.057 0.047-0.089 0.068s-0.066 0.035-0.103 0.043c-0.014 0.002-0.028 0.004-0.043 0.004-0.032 0-0.063-0.006-0.091-0.017l-0.099 0.202-0.16 0.32q-0.090 0.181-0.187 0.395t-0.19 0.426q-0.093 0.213-0.171 0.413t-0.126 0.357c-0.026 0.075-0.046 0.162-0.055 0.252q-0 0.106 0.041 0.119t0.102-0.098q0.062-0.109 0.146-0.291t0.181-0.421q0.099-0.238 0.206-0.48t0.222-0.48c0.079-0.161 0.156-0.295 0.24-0.423 0.056-0.089 0.132-0.178 0.22-0.254 0.044-0.044 0.104-0.071 0.169-0.071 0.018 0 0.036 0.002 0.053 0.006 0.003 0.024 0.005 0.051 0.005 0.080s-0.002 0.056-0.007 0.083q-0.012 0.074-0.025 0.157-0.008 0.042-0.022 0.125l-0.032 0.187q-0.018 0.106-0.038 0.221t-0.038 0.221-0.034 0.189-0.024 0.123l0.011 0.237c0.019 0.021 0.035 0.030 0.066 0.040z"></path>
<path class="path17" d="M26.531 21.659q0.021-0.066 0.046-0.16l0.109-0.368 0.045-0.15 0.026-0.085q0.011-0.037 0.034-0.12c0.014-0.049 0.024-0.107 0.027-0.166 0.001-0.010 0.001-0.019 0.001-0.028 0-0.045-0.009-0.088-0.026-0.126-0.019-0.037-0.058-0.063-0.104-0.063-0.006 0-0.013 0.001-0.019 0.002l-0.303 1.008-0.030 0.048c-0.041-0.005-0.089-0.008-0.137-0.008-0.1 0-0.196 0.013-0.288 0.037-0.118 0.032-0.228 0.084-0.327 0.151-0.091 0.062-0.172 0.139-0.239 0.227-0.025 0.034-0.050 0.070-0.072 0.107l-0.011 0.006q-0.16 0.144-0.286 0.242t-0.27 0.198c-0.081 0.060-0.174 0.113-0.272 0.156-0.067 0.030-0.135 0.045-0.207 0.045-0.014 0-0.029-0.001-0.043-0.002q-0.101-0.013-0.133-0.142c-0.011-0.043-0.018-0.092-0.018-0.142 0-0.022 0.001-0.044 0.004-0.065 0.008-0.075 0.021-0.144 0.039-0.211q0.023-0.090 0.050-0.19c0.017-0.056 0.029-0.121 0.035-0.188 0.001-0.017 0.002-0.033 0.002-0.048 0-0.049-0.007-0.095-0.019-0.14-0.020-0.060-0.055-0.114-0.101-0.156-0.066-0.074-0.158-0.122-0.261-0.13-0.004-0-0.007-0-0.010-0-0.098 0-0.189 0.028-0.266 0.076-0.099 0.062-0.185 0.138-0.257 0.226-0.084 0.099-0.16 0.206-0.225 0.321-0.066 0.116-0.125 0.24-0.173 0.369-0.046 0.122-0.081 0.247-0.103 0.375-0.010 0.058-0.015 0.112-0.015 0.166s0.005 0.108 0.014 0.16c0.009 0.075 0.051 0.143 0.112 0.187 0.058 0.042 0.128 0.068 0.205 0.069 0.073-0.001 0.142-0.018 0.203-0.048 0.068-0.033 0.128-0.075 0.182-0.124 0.056-0.051 0.108-0.103 0.158-0.158q0.077-0.088 0.142-0.175t0.11-0.139c0.028 0.016 0.052 0.038 0.068 0.065 0.019 0.030 0.041 0.056 0.066 0.077 0.056 0.056 0.132 0.093 0.215 0.101 0.020 0.002 0.042 0.003 0.064 0.003 0.071 0 0.139-0.010 0.204-0.030 0.099-0.029 0.19-0.068 0.274-0.117 0.093-0.053 0.177-0.109 0.258-0.169 0.045-0.034 0.090-0.073 0.133-0.113-0.006 0.027-0.011 0.061-0.014 0.094-0.002 0.018-0.003 0.035-0.003 0.053 0 0.060 0.012 0.117 0.033 0.169 0.022 0.053 0.067 0.096 0.122 0.118 0.028 0.009 0.059 0.013 0.091 0.013 0.048 0 0.094-0.011 0.135-0.030 0.121-0.052 0.226-0.118 0.32-0.199 0.153-0.129 0.292-0.267 0.418-0.416l0.043-0.005c0.037 0.103 0.083 0.191 0.137 0.273 0.053 0.078 0.13 0.142 0.219 0.183l0.056 0.024c0.025 0.011 0.055 0.020 0.087 0.027 0.016 0.003 0.031 0.005 0.047 0.005s0.031-0.002 0.045-0.005c0.025-0.005 0.045-0.028 0.045-0.056-0.025-0.026-0.055-0.047-0.088-0.062l-0.106-0.049c-0.038-0.019-0.071-0.038-0.102-0.059-0.030-0.021-0.055-0.052-0.069-0.088q-0.032-0.129-0.063-0.272c-0.008-0.035-0.012-0.076-0.012-0.117 0-0.058 0.009-0.113 0.024-0.165q0.004-0.034 0.025-0.1zM23.901 21.749c-0.029 0.17-0.077 0.323-0.142 0.466s-0.142 0.275-0.232 0.398c-0.074 0.105-0.161 0.202-0.258 0.288-0.066 0.063-0.146 0.109-0.235 0.133-0.013 0.003-0.023 0.005-0.034 0.005-0.056 0-0.104-0.038-0.118-0.089-0.012-0.041-0.019-0.087-0.019-0.135s0.007-0.094 0.020-0.138c0.030-0.142 0.070-0.269 0.121-0.39 0.061-0.147 0.127-0.281 0.202-0.409 0.067-0.119 0.147-0.235 0.235-0.343 0.065-0.083 0.146-0.157 0.236-0.219 0.035-0.028 0.076-0.044 0.121-0.044 0.033 0 0.065 0.009 0.092 0.024 0.018 0.077 0.030 0.165 0.030 0.256 0 0.069-0.006 0.137-0.019 0.203zM26.232 21.773c-0.043 0.089-0.090 0.165-0.143 0.236-0.069 0.094-0.138 0.18-0.212 0.261-0.071 0.080-0.146 0.156-0.226 0.227-0.059 0.056-0.124 0.102-0.195 0.138q-0.091 0.042-0.115-0.014c-0.034-0.064-0.054-0.141-0.054-0.222 0-0.014 0.001-0.027 0.002-0.041 0.008-0.093 0.033-0.181 0.074-0.26 0.041-0.083 0.095-0.158 0.158-0.224 0.065-0.066 0.138-0.123 0.219-0.17 0.077-0.045 0.162-0.077 0.251-0.093 0.032-0.006 0.063-0.009 0.094-0.009 0.056 0 0.11 0.009 0.16 0.027q0.033 0.039-0.013 0.143z"></path>
<path class="path18" d="M28.058 20.64c-0.008-0.003-0.018-0.005-0.028-0.005-0.023 0-0.043 0.009-0.058 0.024-0.103 0.072-0.192 0.155-0.268 0.249-0.081 0.096-0.158 0.201-0.23 0.309q-0.119 0.183-0.211 0.352t-0.17 0.302c-0.003 0.028-0.004 0.061-0.004 0.094s0.002 0.066 0.005 0.098c0.006 0.061 0.022 0.12 0.048 0.175 0.024 0.051 0.060 0.097 0.104 0.134 0.049 0.039 0.111 0.064 0.177 0.068 0.010 0 0.021 0.001 0.032 0.001 0.096 0 0.189-0.018 0.274-0.050 0.137-0.046 0.258-0.1 0.372-0.164 0.116-0.063 0.225-0.136 0.327-0.218 0.080-0.059 0.148-0.138 0.196-0.23l-0.048-0.031-0.243 0.134q-0.149 0.083-0.309 0.16t-0.32 0.147c-0.080 0.036-0.173 0.063-0.271 0.078q-0.132-0.038-0.134-0.119c0.004-0.070 0.030-0.133 0.071-0.183 0.061-0.075 0.127-0.142 0.199-0.202q0.125-0.117 0.249-0.226l0.226-0.202c0.051-0.042 0.095-0.091 0.13-0.146 0.011-0.027 0.017-0.056 0.017-0.086 0.002-0.019 0.002-0.042 0.002-0.064s-0.001-0.045-0.003-0.067c-0.004-0.050-0.012-0.098-0.022-0.145-0.008-0.039-0.022-0.080-0.041-0.118-0.013-0.028-0.036-0.052-0.065-0.067zM27.989 21.12c-0.031 0.057-0.066 0.105-0.106 0.149-0.049 0.052-0.101 0.101-0.157 0.146-0.050 0.044-0.102 0.082-0.158 0.115-0.044 0.028-0.090 0.045-0.139 0.051s-0.002-0.014 0.026-0.048l0.088-0.118 0.118-0.152 0.122-0.15q0.058-0.069 0.096-0.112t0.043-0.042c0.053 0 0.082 0.018 0.088 0.046 0.001 0.008 0.002 0.017 0.002 0.027 0 0.032-0.008 0.063-0.023 0.089z"></path>
<path class="path19" d="M15.28 12.243c-0.023 0.023-0.037 0.055-0.037 0.090s0.014 0.067 0.037 0.090l0.352 0.346c0.023 0.023 0.055 0.037 0.090 0.037s0.067-0.014 0.090-0.037l2.456-2.501 0.106 0.106 0.011 0.010c-0.038 0.106 0.029 0.184 0.16 0.32 0.070 0.078 0.163 0.134 0.268 0.159 0.052 0.010 0.095 0.033 0.127 0.066 0.035 0.035 0.059 0.081 0.069 0.131 0.025 0.104 0.078 0.191 0.15 0.257l1.359 1.373c0.012 0.014 0.030 0.022 0.049 0.022 0.010 0 0.020-0.002 0.028-0.006l0.115 0.117c0.023 0.024 0.054 0.038 0.089 0.038 0.001 0 0.001 0 0.002 0 0.090 0 0.182-0.093 0.256-0.16l0.051-0.051c0.075-0.074 0.17-0.16 0.17-0.254 0-0 0-0.001 0-0.001 0-0.035-0.015-0.067-0.038-0.090l-0.115-0.117c0.004-0.008 0.006-0.017 0.006-0.027 0-0.020-0.008-0.037-0.022-0.050l-1.358-1.373c-0.065-0.076-0.152-0.132-0.251-0.159-0.056-0.011-0.101-0.036-0.136-0.071-0.033-0.033-0.056-0.076-0.064-0.123-0.025-0.111-0.082-0.204-0.16-0.275-0.143-0.144-0.221-0.213-0.34-0.16v0l-0.128-0.128c-0.014-0.013-0.032-0.022-0.053-0.022-0.013 0-0.025 0.003-0.036 0.009l-0.035-0.024 1.213-1.234c0.040-0.038 0.117-0.112 0.182-0.179s0.294-0.058 0.472 0.061c0.256 0.171 0.286 0.296 0.288 0.341 0 0.036 0.013 0.068 0.035 0.093l0.16 0.15c0.014 0.014 0.034 0.023 0.056 0.023s0.042-0.009 0.056-0.023l0.426-0.434c0.015-0.014 0.024-0.034 0.024-0.056s-0.009-0.042-0.024-0.056l-0.16-0.16c-0.024-0.021-0.054-0.036-0.087-0.043-0.091-0.012-0.169-0.051-0.23-0.109l-0.16-0.16c-0.025-0.028-0.044-0.063-0.056-0.101-0.059-0.158-0.159-0.286-0.288-0.378l-0.031-0.024c-0.32-0.266-0.877-0.709-2.122-0.16-0.037 0.014-0.063 0.049-0.066 0.089-0 0.001-0 0.003-0 0.004 0 0.024 0.012 0.046 0.030 0.059 0.016 0.011 0.035 0.018 0.056 0.018 0.002 0 0.004-0 0.006-0l-0.015 0.011c-0.020 0.018-0.033 0.044-0.033 0.073 0 0.016 0.004 0.031 0.011 0.045 0.012 0.016 0.031 0.026 0.053 0.026 0.012 0 0.024-0.003 0.033-0.009 0.776-0.336 1.145-0.11 1.32 0.053 0.018 0.118-0.082 0.277-0.32 0.536l-1.222 1.246c-0.062-0.051-0.123-0.104-0.182-0.16-0.089-0.079-0.145-0.193-0.149-0.319v-0.017l-0.010-0.010-1.859-1.872-0.387 0.384 1.869 1.882c0.128 0.005 0.241 0.062 0.32 0.152l0.082 0.093zM15.73 7.509l0.075-0.075 1.68 1.771zM19.581 7.237c-0.048 0-0.096-0.011-0.144-0.014s-0.098 0-0.146 0-0.096 0-0.141 0l-0.133 0.011-0.118 0.016c-0.147 0.022-0.243 0.045-0.243 0.045 0.066-0.033 0.145-0.062 0.226-0.084 0.080-0.023 0.166-0.040 0.254-0.051 0.055-0.001 0.105-0.012 0.154-0.012s0.101 0 0.152 0 0.101 0.008 0.15 0.018l0.074 0.014 0.070 0.018c0.052 0.015 0.095 0.031 0.136 0.049 0.037 0.016 0.073 0.035 0.108 0.056 0.030 0.017 0.058 0.036 0.085 0.056l0.060 0.048 0.050 0.048-0.058-0.037-0.067-0.038c-0.027-0.013-0.056-0.029-0.091-0.043l-0.053-0.021-0.058-0.021c-0.040-0.013-0.082-0.024-0.126-0.035s-0.094-0.013-0.141-0.019zM19.802 8.046l-1.478 1.579-0.083-0.064zM17.898 9.92l-2.453 2.418 2.376-2.498z"></path>
<path class="path20" d="M3.222 18.566v-0.357l-0.738-0.114v-3.861l0.941 0.074 0.202 0.645 0.357-0.040 0.006-1.117h-3.917l-0.074 1.133 0.437-0.019 0.211-0.602 0.962-0.074v3.864l-0.728 0.11v0.357h2.341z"></path>
<path class="path21" d="M6.56 18.485c0.033 0.044 0.075 0.079 0.124 0.103s0.103 0.040 0.16 0.047c0.043 0.007 0.091 0.011 0.139 0.011q0.087 0 0.182 0c0.072-0.006 0.136-0.015 0.2-0.027 0.055-0.017 0.11-0.038 0.163-0.062 0.053-0.017 0.106-0.042 0.155-0.072l-0.003-0.272h-0.4v-1.966c0.001-0.015 0.001-0.034 0.001-0.052 0-0.194-0.037-0.38-0.105-0.55-0.059-0.138-0.155-0.262-0.275-0.357-0.12-0.091-0.262-0.158-0.416-0.191-0.162-0.037-0.341-0.057-0.524-0.057-0.001 0-0.002 0-0.004 0s-0.005 0-0.007 0c-0.159 0-0.315 0.012-0.467 0.036-0.142 0.022-0.28 0.053-0.414 0.092-0.106 0.031-0.216 0.072-0.321 0.12-0.069 0.031-0.141 0.075-0.207 0.127l0.162 0.389q0.067-0.037 0.17-0.082c0.061-0.027 0.136-0.055 0.214-0.078 0.084-0.025 0.175-0.047 0.268-0.063 0.104-0.019 0.205-0.028 0.308-0.028 0.002 0 0.004 0 0.006 0 0.004-0 0.009-0 0.014-0 0.102 0 0.201 0.011 0.296 0.032 0.081 0.018 0.16 0.060 0.223 0.117 0.067 0.064 0.119 0.146 0.147 0.237 0.035 0.112 0.054 0.237 0.054 0.366 0 0.012-0 0.025-0.001 0.037l0 0.115q-0.147 0-0.344 0.019c-0.157 0.016-0.295 0.039-0.43 0.069-0.139 0.031-0.279 0.072-0.415 0.123-0.123 0.045-0.249 0.108-0.366 0.183-0.105 0.068-0.201 0.154-0.282 0.253-0.081 0.097-0.137 0.213-0.161 0.34-0.015 0.072-0.023 0.15-0.023 0.23s0.008 0.158 0.024 0.233c0.031 0.14 0.098 0.269 0.19 0.374 0.101 0.113 0.228 0.203 0.372 0.261 0.164 0.064 0.346 0.1 0.536 0.1 0.014 0 0.027-0 0.040-0.001 0.009 0 0.022 0.001 0.035 0.001 0.189 0 0.368-0.040 0.53-0.113 0.141-0.066 0.269-0.155 0.379-0.263l-0 0.027c0.001 0.074 0.028 0.141 0.072 0.192zM6.4 17.398q0 0.267 0 0.538c-0.058 0.046-0.123 0.090-0.191 0.128-0.077 0.042-0.159 0.068-0.247 0.076-0.035 0.005-0.073 0.008-0.112 0.008-0.151 0-0.29-0.046-0.407-0.123-0.103-0.099-0.168-0.241-0.168-0.399 0-0.024 0.001-0.047 0.004-0.070-0-0.001-0-0.005-0-0.009 0-0.086 0.020-0.167 0.056-0.239 0.035-0.068 0.083-0.129 0.14-0.179 0.060-0.051 0.127-0.095 0.2-0.128s0.154-0.063 0.238-0.083c0.081-0.020 0.167-0.036 0.255-0.045q0.136-0.013 0.246-0.013-0.014 0.272-0.014 0.539z"></path>
<path class="path22" d="M9.328 13.627l-0.154-0.061-1.166 0.141v0.36l0.448 0.147v3.925l-0.434 0.077v0.35h1.85v-0.35l-0.544-0.080v-4.509z"></path>
<path class="path23" d="M11.936 18.21v0.35h1.192l0.259 0.011 0.258 0.013q0.128 0 0.242 0c0.022 0.001 0.048 0.001 0.073 0.001 0.325 0 0.637-0.059 0.924-0.167 0.285-0.11 0.544-0.28 0.758-0.495 0.218-0.222 0.392-0.488 0.507-0.784 0.122-0.322 0.19-0.676 0.19-1.045 0-0.018-0-0.035-0-0.053 0-0.008 0-0.022 0-0.035 0-0.322-0.050-0.632-0.142-0.923-0.084-0.261-0.23-0.504-0.42-0.704-0.201-0.201-0.447-0.358-0.722-0.454-0.306-0.106-0.643-0.165-0.994-0.165-0.028 0-0.057 0-0.085 0.001q-0.143-0-0.282-0l-0.546 0.032q-0.136 0-0.282 0h-0.917v0.414l0.464 0.061v3.827zM13.296 14.256c0.068-0.023 0.148-0.042 0.23-0.054 0.102-0.014 0.213-0.022 0.326-0.023 0.010-0 0.020-0 0.030-0 0.229 0 0.447 0.047 0.645 0.131 0.186 0.083 0.351 0.213 0.475 0.375 0.138 0.184 0.242 0.398 0.3 0.63 0.068 0.268 0.106 0.561 0.106 0.862 0 0.021-0 0.041-0.001 0.062 0 0.009 0 0.024 0 0.038 0 0.27-0.038 0.531-0.109 0.779-0.061 0.208-0.159 0.408-0.287 0.584-0.109 0.151-0.251 0.279-0.415 0.373-0.156 0.089-0.333 0.143-0.522 0.154-0.061 0.007-0.128 0.011-0.196 0.011-0.211 0-0.414-0.039-0.6-0.111z"></path>
<path class="path24" d="M18.97 15.581l0.381 0.074-0.506 1.549-0.194 0.712-0.224-0.725-0.574-1.533 0.318-0.080v-0.448h-1.59v0.445l0.31 0.074 1.274 2.958h0.683l1.189-2.936 0.341-0.093v-0.448h-1.408v0.451z"></path>
<path class="path25" d="M23.016 18.517c0.216-0.085 0.401-0.207 0.555-0.36 0.161-0.162 0.29-0.356 0.377-0.572 0.095-0.241 0.148-0.507 0.148-0.785 0-0.009-0-0.019-0-0.028 0-0.008 0-0.020 0-0.031 0-0.249-0.040-0.489-0.114-0.713-0.066-0.199-0.175-0.383-0.317-0.539-0.141-0.15-0.315-0.269-0.511-0.344-0.206-0.078-0.434-0.121-0.672-0.121-0.017 0-0.035 0-0.052 0.001-0.236 0.004-0.463 0.047-0.674 0.123-0.421 0.146-0.764 0.466-0.941 0.875-0.105 0.24-0.164 0.507-0.164 0.789 0 0.001 0 0.002 0 0.003-0 0.016-0.001 0.036-0.001 0.055 0 0.229 0.031 0.451 0.090 0.661 0.056 0.206 0.157 0.401 0.291 0.568 0.137 0.167 0.314 0.303 0.515 0.392 0.225 0.096 0.477 0.15 0.741 0.15 0.018 0 0.037-0 0.055-0.001 0.004 0 0.011 0 0.018 0 0.236 0 0.461-0.045 0.668-0.126zM21.912 17.994c-0.058-0.075-0.108-0.16-0.146-0.252-0.040-0.094-0.074-0.198-0.101-0.305-0.027-0.109-0.048-0.223-0.060-0.34q-0.018-0.181-0.018-0.341c-0-0.004-0-0.009-0-0.013 0-0.177 0.014-0.35 0.041-0.519 0.021-0.14 0.067-0.284 0.134-0.415 0.056-0.112 0.141-0.212 0.245-0.287 0.103-0.067 0.226-0.107 0.359-0.107 0.013 0 0.025 0 0.037 0.001 0.001-0 0.005-0 0.008-0 0.136 0 0.262 0.047 0.361 0.126 0.1 0.084 0.181 0.192 0.233 0.314 0.060 0.135 0.103 0.284 0.126 0.441 0.024 0.16 0.038 0.335 0.038 0.513 0 0.001 0 0.003 0 0.004 0 0.005 0 0.010 0 0.016 0 0.189-0.013 0.375-0.038 0.557-0.019 0.147-0.063 0.3-0.127 0.442-0.052 0.114-0.134 0.217-0.237 0.296-0.101 0.071-0.224 0.113-0.356 0.113-0.012 0-0.023-0-0.035-0.001-0.001 0-0.004 0-0.008 0-0.093 0-0.181-0.024-0.257-0.067-0.078-0.045-0.145-0.104-0.199-0.173z"></path>
<path class="path26" d="M26.067 15.878c0.037-0.019 0.080-0.037 0.125-0.051 0.055-0.018 0.114-0.031 0.174-0.041 0.072-0.011 0.148-0.017 0.225-0.017 0.003 0 0.006 0 0.010 0 0 0 0.001 0 0.002 0 0.105 0 0.208 0.013 0.306 0.037 0.080 0.018 0.159 0.050 0.23 0.094l-0.003-0.824c-0.037-0.012-0.080-0.021-0.124-0.022q-0.089-0-0.193-0c-0.095 0.002-0.185 0.020-0.268 0.050-0.103 0.034-0.197 0.078-0.285 0.131s-0.171 0.117-0.245 0.189c-0.069 0.064-0.123 0.143-0.158 0.232l-0.002-0.552-0.187-0.064-0.998 0.298v0.301l0.427 0.27v2.227l-0.43 0.074v0.35h2.088v-0.35l-0.784-0.093v-2.186c0.026-0.017 0.056-0.034 0.087-0.050z"></path>
<path class="path27" d="M29.328 18.155c-0.113 0.070-0.25 0.112-0.396 0.112-0.029 0-0.059-0.002-0.087-0.005-0.070-0.003-0.139-0.016-0.204-0.036-0.056-0.019-0.109-0.043-0.159-0.071-0.047-0.027-0.091-0.057-0.131-0.092q-0.059-0.050-0.115-0.101l-0.16-0.354h-0.405v0.762c0.075 0.045 0.161 0.086 0.252 0.118s0.189 0.062 0.29 0.084c0.098 0.022 0.202 0.039 0.308 0.051 0.103 0.012 0.207 0.018 0.313 0.019 0.006 0 0.012 0 0.018 0 0.201 0 0.397-0.023 0.586-0.066 0.164-0.037 0.325-0.104 0.469-0.194 0.126-0.082 0.233-0.194 0.311-0.326 0.078-0.139 0.123-0.299 0.123-0.47 0-0.009-0-0.017-0-0.026 0-0.005 0-0.013 0-0.021 0-0.145-0.039-0.281-0.108-0.397-0.071-0.114-0.162-0.214-0.267-0.295-0.11-0.085-0.232-0.159-0.362-0.219l-0.417-0.192q-0.138-0.067-0.264-0.134c-0.083-0.044-0.155-0.093-0.221-0.147-0.057-0.046-0.106-0.103-0.145-0.167-0.035-0.059-0.055-0.126-0.055-0.198 0-0.006 0-0.011 0-0.017-0-0.002-0-0.005-0-0.008 0-0.060 0.017-0.117 0.046-0.165 0.030-0.048 0.071-0.088 0.119-0.118 0.052-0.032 0.111-0.056 0.174-0.069 0.065-0.014 0.135-0.021 0.206-0.021 0.003 0 0.006 0 0.009 0 0.001-0 0.003-0 0.005-0 0.103 0 0.2 0.027 0.284 0.074 0.075 0.043 0.142 0.096 0.2 0.158l0.16 0.365h0.418v-0.766c-0.055-0.025-0.123-0.049-0.193-0.069q-0.133-0.038-0.279-0.065t-0.317-0.046c-0.083-0.008-0.179-0.013-0.276-0.013-0.016 0-0.031 0-0.047 0-0.105 0.003-0.208 0.012-0.308 0.029-0.105 0.017-0.208 0.043-0.308 0.076-0.097 0.033-0.192 0.075-0.282 0.125-0.084 0.046-0.164 0.106-0.233 0.176-0.065 0.069-0.119 0.149-0.158 0.238-0.043 0.096-0.068 0.202-0.068 0.314-0 0.009-0 0.019-0 0.029 0 0.135 0.030 0.263 0.084 0.378 0.057 0.119 0.134 0.225 0.226 0.314 0.097 0.093 0.206 0.175 0.323 0.244q0.195 0.113 0.399 0.209l0.31 0.142c0.104 0.047 0.191 0.095 0.275 0.148 0.062 0.040 0.123 0.093 0.176 0.154 0.045 0.052 0.071 0.118 0.071 0.191 0 0.001 0 0.002 0 0.002 0 0.003 0 0.007 0 0.011 0 0.145-0.075 0.273-0.187 0.347z"></path>
<path class="path28" d="M34.504 15.117h-1.742v0.451l0.52 0.059-1.155 1.213 0.027-0.448v-2.749l-0.16-0.077-1.232 0.168v0.363l0.52 0.171v3.864l-0.451 0.083v0.35h1.717v-0.35l-0.397-0.074v-0.354l-0.027-0.395 0.397-0.424 0.718 1.163-0.32 0.080v0.354h1.674v-0.354l-0.362-0.064-1.155-1.669 0.872-0.856 0.557-0.056v-0.451z"></path>
<path class="path29" d="M35.326 14.298c0.048 0.041 0.104 0.073 0.166 0.095s0.129 0.035 0.199 0.035c0.001 0 0.001 0 0.002 0 0.164-0.001 0.314-0.062 0.43-0.161 0.057-0.049 0.104-0.11 0.138-0.178 0.036-0.072 0.056-0.152 0.056-0.237 0-0.002 0-0.004-0-0.006 0-0.001 0-0.002 0-0.004 0-0.067-0.011-0.132-0.032-0.192-0.019-0.058-0.052-0.112-0.095-0.156-0.044-0.044-0.098-0.080-0.157-0.104-0.069-0.027-0.145-0.041-0.224-0.041-0.005 0-0.011 0-0.016 0-0.080 0.001-0.156 0.017-0.226 0.046-0.074 0.030-0.141 0.071-0.2 0.122s-0.107 0.112-0.143 0.181c-0.037 0.070-0.058 0.15-0.058 0.234 0 0.001 0 0.002 0 0.003s-0 0.005-0 0.007c0 0.072 0.017 0.14 0.046 0.2 0.027 0.059 0.066 0.112 0.114 0.155z"></path>
<path class="path30" d="M36.23 15.117l-0.206-0.070-1.059 0.328v0.246l0.405 0.347v2.168l-0.461 0.080v0.35h1.787v-0.35l-0.466-0.074v-3.026z"></path>
<path class="path31" d="M18.613 29.758v-0.546h1.914l-1.341-1.624h0.837l-1.030-1.248h0.642l-1.285-1.555-1.286 1.555h0.643l-1.030 1.248h0.837l-1.342 1.624h1.915v0.546h0.528z"></path>
<path class="path32" d="M22.17 27.87v-0.254h0.893l-0.624-0.757h0.389l-0.48-0.582h0.299l-0.6-0.726-0.598 0.726h0.299l-0.48 0.582h0.39l-0.627 0.757h0.893v0.254h0.246z"></path>
<path class="path33" d="M14.773 27.87v-0.254h0.893l-0.626-0.757h0.39l-0.48-0.582h0.299l-0.6-0.726-0.6 0.726h0.301l-0.482 0.582h0.39l-0.626 0.757h0.893v0.254h0.246z"></path>
</symbol>
</defs>
</svg>
